<?xml version="1.0" encoding="utf-8"?>
<!-- Generator: Adobe Illustrator 25.0.0, SVG Export Plug-In . SVG Version: 6.00 Build 0)  -->
<svg version="1.1" id="katman_1" xmlns="http://www.w3.org/2000/svg" xmlns:xlink="http://www.w3.org/1999/xlink" x="0px" y="0px"
	 viewBox="0 0 2998.6 2251.9" style="enable-background:new 0 0 2998.6 2251.9;" xml:space="preserve">
<style type="text/css">
	.st0{fill:#988430;}
	.st1{fill:#7A6A2A;}
	.st2{fill:#BA9F33;}
	.st3{fill-rule:evenodd;clip-rule:evenodd;fill:#CFB66C;}
	.st4{fill-rule:evenodd;clip-rule:evenodd;fill:#E2CC85;}
	.st5{fill-rule:evenodd;clip-rule:evenodd;fill:#F1D789;}
	.st6{fill-rule:evenodd;clip-rule:evenodd;fill:#F4ECB4;}
	.st7{fill-rule:evenodd;clip-rule:evenodd;fill:#F3E19D;}
	.st8{fill-rule:evenodd;clip-rule:evenodd;fill:#F2E8B0;}
	.st9{fill-rule:evenodd;clip-rule:evenodd;fill:#F5EEC0;}
	.st10{fill-rule:evenodd;clip-rule:evenodd;fill:#E6DB9D;}
	.st11{fill-rule:evenodd;clip-rule:evenodd;fill:#E5CB7A;}
	.st12{fill-rule:evenodd;clip-rule:evenodd;fill:#D8C173;}
	.st13{fill-rule:evenodd;clip-rule:evenodd;fill:#E0CD81;}
	.st14{fill-rule:evenodd;clip-rule:evenodd;fill:#DFC57C;}
	.st15{fill-rule:evenodd;clip-rule:evenodd;fill:#E5CC7C;}
	.st16{fill-rule:evenodd;clip-rule:evenodd;fill:#D2C281;}
	.st17{fill-rule:evenodd;clip-rule:evenodd;fill:#E2C270;}
	.st18{fill-rule:evenodd;clip-rule:evenodd;fill:#CCB360;}
	.st19{fill-rule:evenodd;clip-rule:evenodd;fill:#D5B457;}
	.st20{fill-rule:evenodd;clip-rule:evenodd;fill:#D2B257;}
	.st21{fill-rule:evenodd;clip-rule:evenodd;fill:#D2B159;}
	.st22{fill-rule:evenodd;clip-rule:evenodd;fill:#C2A44D;}
	.st23{fill-rule:evenodd;clip-rule:evenodd;fill:#CAA13E;}
	.st24{fill-rule:evenodd;clip-rule:evenodd;fill:#B59544;}
	.st25{fill-rule:evenodd;clip-rule:evenodd;fill:#C89D3A;}
	.st26{fill-rule:evenodd;clip-rule:evenodd;fill:#CEB052;}
	.st27{fill-rule:evenodd;clip-rule:evenodd;fill:#CCA847;}
	.st28{fill-rule:evenodd;clip-rule:evenodd;fill:#C39D3C;}
	.st29{fill-rule:evenodd;clip-rule:evenodd;fill:#D2BA6B;}
	.st30{fill-rule:evenodd;clip-rule:evenodd;fill:#C0993A;}
	.st31{fill-rule:evenodd;clip-rule:evenodd;fill:#A88F33;}
	.st32{fill-rule:evenodd;clip-rule:evenodd;fill:#E3C571;}
	.st33{fill-rule:evenodd;clip-rule:evenodd;fill:#D8B65B;}
	.st34{fill-rule:evenodd;clip-rule:evenodd;fill:#D3AE4D;}
	.st35{fill-rule:evenodd;clip-rule:evenodd;fill:#F4EFC8;}
	.st36{fill-rule:evenodd;clip-rule:evenodd;fill:#EBCC73;}
	.st37{fill-rule:evenodd;clip-rule:evenodd;fill:#E5C66B;}
	.st38{fill-rule:evenodd;clip-rule:evenodd;fill:#E6BD62;}
	.st39{fill-rule:evenodd;clip-rule:evenodd;fill:#B6933F;}
	.st40{fill-rule:evenodd;clip-rule:evenodd;fill:#C49937;}
	.st41{fill-rule:evenodd;clip-rule:evenodd;fill:#DFC068;}
	.st42{fill-rule:evenodd;clip-rule:evenodd;fill:#C99E3D;}
	.st43{fill-rule:evenodd;clip-rule:evenodd;fill:#B58634;}
	.st44{fill-rule:evenodd;clip-rule:evenodd;fill:#E6C367;}
	.st45{fill-rule:evenodd;clip-rule:evenodd;fill:#DCBA5A;}
	.st46{fill-rule:evenodd;clip-rule:evenodd;fill:#E9CE77;}
	.st47{fill-rule:evenodd;clip-rule:evenodd;fill:#CDAE50;}
	.st48{fill-rule:evenodd;clip-rule:evenodd;fill:#D2A83E;}
	.st49{fill-rule:evenodd;clip-rule:evenodd;fill:#C29637;}
	.st50{fill-rule:evenodd;clip-rule:evenodd;fill:#AC8132;}
	.st51{fill-rule:evenodd;clip-rule:evenodd;fill:#A67A2E;}
	.st52{fill-rule:evenodd;clip-rule:evenodd;fill:#8C6228;}
	.st53{fill-rule:evenodd;clip-rule:evenodd;fill:#CBA94C;}
	.st54{fill-rule:evenodd;clip-rule:evenodd;fill:#BE9C44;}
	.st55{fill-rule:evenodd;clip-rule:evenodd;fill:#A17C34;}
	.st56{fill-rule:evenodd;clip-rule:evenodd;fill:#92723A;}
	.st57{fill-rule:evenodd;clip-rule:evenodd;fill:#B18E3E;}
	.st58{fill-rule:evenodd;clip-rule:evenodd;fill:#543E26;}
	.st59{fill-rule:evenodd;clip-rule:evenodd;fill:#806031;}
	.st60{fill-rule:evenodd;clip-rule:evenodd;fill:#B6903C;}
	.st61{fill-rule:evenodd;clip-rule:evenodd;fill:#685026;}
	.st62{fill-rule:evenodd;clip-rule:evenodd;fill:#D4B968;}
	.st63{fill-rule:evenodd;clip-rule:evenodd;fill:#CCA849;}
	.st64{fill-rule:evenodd;clip-rule:evenodd;fill:#585136;}
	.st65{fill-rule:evenodd;clip-rule:evenodd;fill:#252211;}
	.st66{fill-rule:evenodd;clip-rule:evenodd;fill:#C3B378;}
	.st67{fill-rule:evenodd;clip-rule:evenodd;fill:#E6D89C;}
	.st68{fill-rule:evenodd;clip-rule:evenodd;fill:#6F674D;}
	.st69{fill-rule:evenodd;clip-rule:evenodd;fill:#AC924C;}
	.st70{fill-rule:evenodd;clip-rule:evenodd;fill:#9F8E57;}
	.st71{fill-rule:evenodd;clip-rule:evenodd;fill:#EAC970;}
	.st72{fill-rule:evenodd;clip-rule:evenodd;fill:#D7BC6B;}
	.st73{fill-rule:evenodd;clip-rule:evenodd;fill:#453A25;}
	.st74{fill-rule:evenodd;clip-rule:evenodd;fill:#84754B;}
	.st75{fill-rule:evenodd;clip-rule:evenodd;fill:#F7F7E7;}
	.st76{fill-rule:evenodd;clip-rule:evenodd;fill:#F8F6DE;}
	.st77{fill-rule:evenodd;clip-rule:evenodd;fill:#D4C38B;}
	.st78{fill-rule:evenodd;clip-rule:evenodd;fill:#E2D59D;}
	.st79{fill-rule:evenodd;clip-rule:evenodd;fill:#CBAC5A;}
	.st80{fill-rule:evenodd;clip-rule:evenodd;fill:#D6BC6F;}
	.st81{fill-rule:evenodd;clip-rule:evenodd;fill:#DFC677;}
	.st82{fill-rule:evenodd;clip-rule:evenodd;fill:#C4A859;}
	.st83{fill-rule:evenodd;clip-rule:evenodd;fill:#927D49;}
	.st84{fill-rule:evenodd;clip-rule:evenodd;fill:#6E6342;}
	.st85{fill-rule:evenodd;clip-rule:evenodd;fill:#39331F;}
	.st86{fill-rule:evenodd;clip-rule:evenodd;fill:#292311;}
	.st87{fill-rule:evenodd;clip-rule:evenodd;fill:#3F3824;}
	.st88{fill-rule:evenodd;clip-rule:evenodd;fill:#2D2815;}
	.st89{fill-rule:evenodd;clip-rule:evenodd;fill:#82764F;}
	.st90{fill-rule:evenodd;clip-rule:evenodd;fill:#2D2816;}
	.st91{fill-rule:evenodd;clip-rule:evenodd;fill:#574F35;}
	.st92{fill:none;}
	.st93{fill-rule:evenodd;clip-rule:evenodd;fill:#DEC270;}
	.st94{fill-rule:evenodd;clip-rule:evenodd;fill:#CBAF59;}
	.st95{fill-rule:evenodd;clip-rule:evenodd;fill:#E3C677;}
	.st96{fill-rule:evenodd;clip-rule:evenodd;fill:#ECD592;}
	.st97{fill-rule:evenodd;clip-rule:evenodd;fill:#FFFFFF;fill-opacity:0.8;}
</style>
<g id="Layer_2">
	<g id="Layer_1-2">
		<g id="Layer_1-3">
			<circle class="st0" cx="1499.3" cy="1125.9" r="937.5"/>
			<circle class="st1" cx="1499.3" cy="1125.9" r="907.5"/>
			<circle class="st2" cx="1499.3" cy="1125.9" r="888.3"/>
			<path class="st3" d="M971.7,1025.8c-5.3-4.8-10.9-9.7-16.1-14.6s-10.5-9.7-15.8-14.6l-15.8-15c-2.6-2.6-5.3-4.8-7.9-7.4
				c-2.6-2.3-5.6-4.8-8.2-7.1c-20.9-19.9-42-39.7-62.7-59.6c21.4,19.6,42.3,39,63.7,58.9l7.4,7.4c2.6,2.6,5.3,4.8,7.9,7.4l15.8,14.6
				c5.3,4.8,10.5,9.7,15.8,15S966.4,1021,971.7,1025.8L971.7,1025.8z M693.8,1022.8c0,0,76.1,7.9,113.3,13.2
				c34.4,4.9,142.1,21.4,142.1,21.4L693.8,1022.8z M693.8,1022.8c21.4,1.8,42.8,4.1,64.2,6.4c10.9,1.1,21.4,2.3,31.9,3.3l16.1,1.8
				c5.3,0.8,10.5,1.5,15.8,2.3l63.7,10.2l31.9,5.3c10.5,1.8,20.9,3.8,31.9,5.6c-10.5-1.1-21.4-2.6-31.9-4.1l-31.8-4.6l-63.7-9.4
				c-5.3-0.8-10.5-1.8-15.8-2.6l-16.1-1.9c-10.5-1.1-21.4-2.6-31.9-3.8C736.5,1028.9,715.1,1026.1,693.8,1022.8L693.8,1022.8z
				 M941.6,1077.2c0,0-81.3,20.6-108.8,28.5c-27,7.4-108.8,32.3-108.8,32.3L941.6,1077.2L941.6,1077.2z"/>
			<path class="st3" d="M941.6,1077.2c-18,5.3-36,10.5-54.3,15.3l-54.3,14.6c-18.1,5.3-36,10.5-54,15.8l-27,7.4
				c-9,2.6-18.1,4.8-27.3,7.4c8.9-3,18.1-6.1,27-8.7l27-8.6c18.1-5.6,36-10.9,54-16.5c18.4-4.6,36.4-9.4,54.8-13.8
				C904.9,1085.7,923.3,1081.4,941.6,1077.2L941.6,1077.2L941.6,1077.2z M735.5,1188.1c8.9-3.3,112.1-51.4,136.1-62.7
				c12-5.6,46.9-18,46.9-18L735.5,1188.1z"/>
			<path class="st3" d="M735.5,1188.1c7.9-3,15.3-6.7,22.9-10.2l22.5-10.5l45.1-21.7c15-7.1,29.6-15,45-21.7
				c7.9-3.3,15.8-6.1,23.7-8.6l12-3.8c4.1-1.1,7.9-2.3,12-3.3c-15,7.1-30.8,13.2-45.8,20.2c-15,7.4-30.3,13.5-45.8,20.2l-45.8,20.2
				C765.8,1175.1,750.8,1181.8,735.5,1188.1L735.5,1188.1L735.5,1188.1z M745.5,1230.1c0,0,93.4-54.8,125.6-72.4
				c16.8-9.4,71.3-36.4,71.3-36.4L745.5,1230.1z"/>
			<path class="st3" d="M745.5,1230.2c15.8-9.7,31.8-19.6,47.9-29.6l24-14.6c8.2-4.8,16.1-9.4,24.4-14.3c8.2-4.9,16.1-9.7,24.4-14.3
				c4-2.5,8.1-4.6,12.4-6.4l12.7-6.4c16.8-8.2,33.7-16.5,51.4-23.7c-16.1,10.2-32.6,18.8-49.2,27.8c-8.2,4.6-16.5,8.7-24.7,13.2
				c-8.2,4.5-16.1,9.4-24.4,13.8c-8.2,4.8-16.1,9.4-24.4,13.8l-24.7,13.5L745.5,1230.2L745.5,1230.2L745.5,1230.2z M941.6,1133.4
				c0,0-58.1,44.6-76.9,58.9s-74.2,54.3-74.2,54.3L941.6,1133.4z"/>
			<polygon class="st4" points="1275.1,1493.1 1245.3,1436.8 1262.6,1366.4 1386,1318.8 1333.5,1211.1 1359.4,1102.3 1408.1,1004.9 
				1558.6,981.2 1669.2,875.8 1908,893.8 1954.8,1149.2 1864.6,1470.6 1813.1,1637 1604.7,1644.9 1507.9,1577.9 1394.6,1530.5 			
				"/>
			<path class="st5" d="M1640.7,1491.2c0,0-28.8,13.2-78,10.2c-14.2-19.1-113.9-28.1-113.9-28.1s-12.4-3.8-34.4,5.3
				c-22.1,9-43.1,7.9-62.7,12.7c-19.6,4.8-39-20.6-54-25.9c-15-5.6-34.9-19.1-34.9-19.1l-42-4.1l-84.3-35.7l-134-133.5l-36.4,57
				l-11.2,70.5l40.5,83.6l109.1,99.4l212.7,54l126.1-37.1l157.9-66.8L1640.7,1491.2L1640.7,1491.2z"/>
			<polygon class="st6" points="885,1019.5 912,937.7 944.2,884.9 1047.8,876.2 1016.7,967 930.1,1121.1 966.1,1258.7 902.3,1290.5 
				882.8,1260.5 867,1191.6 865.9,1114.3 			"/>
			<path class="st7" d="M1001.2,1485.6l-19.9-27.8c0,0-5.3-13.2-2.3-24.7c3-11.7,2.6-12.4,1.1-16.8s-14.3-19.6-13.5-32.6
				c0.8-13.2-1.1-17.6,8.6-28.1c10.2-10.2,7.1-27.8,7.1-27.8l13.2,8.2l3-4.6c0,0,4.9,3.8,4.9,9.7c1.1-8.2-3.3-46.1,6.7-54.8
				s27.8,40.5,27.8,40.5l-10.9-71.3l-28.1-73.1l-49.9-66.8l-3-73.6v-6.4c0,0-22.9,35.2-29.3,63c-4.5,19.1,6.4,42.3,4.1,69.8
				c-1.8,27.3-4.1,25.2,2.6,36c6.7,10.8,22.9,33.1,16.5,49.2c-5.6,13.8-24.7,4.1-24.7,4.1s-3.8,11.2-9,15.3
				c-1.8-6.7-3.8-10.9-7.4-15c-0.3,2.6-1.1,6.1-1.1,6.1s-3.3-10.5-6.7-23.7c-4.5-17.6-9.4-40.8-13.8-53.2
				c-1.8,7.1-6.4,28.8-6.4,28.8l2.6,33.4l12.4,45.8l12,30l11.7,36.7l10.1,24.7l8.2,18.8l7.1,42.3l34.4,36.4l18.4,8.2L1001.2,1485.6
				L1001.2,1485.6L1001.2,1485.6z"/>
			<path class="st8" d="M903.1,952.7c0,0-24.7,42-31.8,84.3s-13.5,87.1-9,144.7c4.5,58.1,13.2,93.8,20.2,119.2
				c12,42.3,43.1,101.2,43.1,101.2l1.1-2.3c-5.2-9.9-9.4-20.3-12.4-31.1c-4.1-16.1-5.6-35.2-9.4-43.8c-3.3-8.6-9-16.1-11.7-26.7
				c-2.6-10.2-3-26.2-10.9-38.2c-3.3-4.9-7.4-17.6-8.6-30.3c-1.5-19.1,0.8-40.5-1.1-58.1c-3.3-29.3-5.6-49.2-2.6-64.5
				c3-15.3,18.8-58.8,28.5-93.4c6.4-22.2,2.6-40.8,14.3-60.1c11.7-19.1,18.8-36,21.4-47.6C937,895.4,903.1,952.7,903.1,952.7
				L903.1,952.7L903.1,952.7z"/>
			<path class="st9" d="M1020.4,935.9c0,0-12.7,3.8-18.8,10.5c-6.1,6.4-8.7,11.7-16.8,22.5s-8.6,19.6-15.3,33.1
				c-6.7,13.2-21.4,33.1-23.2,40.2s-4.8,40.5-8.6,56.3c-3.3,15.8,3.8,35.2,3.8,35.2l8.6-1.8c0,0,0,11.2,8.6,18.8
				c8.6,7.4,10.2-25.2,10.2-25.2l32.3-109.1l48.7-33.1l5.3-26.7L1020.4,935.9L1020.4,935.9L1020.4,935.9z"/>
			<path class="st10" d="M1044,985.3c0,0-22.9,1.5-34.1,9.7c-4.5,3.3-6.4,6.1-11.2,10.2c-9,7.4-18.1,14.3-22.5,24
				c-4.9,9.7-10.2,24.4-13.8,52.2c-1.5,11.7-1.5,22.5-2.6,31.9c-1.5,12.7-3.8,22.9-2.6,30c1.5,14.6,16.5,22.2,18,38.7l31.1-15.8
				l29.3-115.5l62.2-39l-35.2-39.4L1044,985.3L1044,985.3L1044,985.3z"/>
			<path class="st11" d="M880,1762.7c0.1-1.1,0.3-2.3,0.4-3.4c4.5-39,5.3-68.6,8.6-87.1c4.9-26.2,8.2-36,7.4-45.8
				c-1.1-15.8-2.3-27.3-0.8-39.4c2.3-16.1,18-35.2,17.6-48.4c-0.3-10.5-5.6-17.3-10.2-23.7c-4.5-6.4-8.2-11.7-8.2-11.7
				s31.1-21.4,30.8-107.6c0.6,0.2,1.2,0.4,1.8,0.8l15.3,43.5l10.5,12.7l40.2,74.9l51.7,50.2l76.5,51.4l47.9,52.2l4.8,139.1
				l-62.7,81.3l-10.3,18.6C1020.1,1879.5,945.3,1826.3,880,1762.7L880,1762.7z"/>
			<path class="st12" d="M1071.3,1895.8c0,0,1.1-17.3,15.3-28.5c2.3,3.8,3.8,7.4,3.3,10.2c2.6-4.5,20.6-33.7,61.4-41.3
				c40.8-7.4,50.7-37.2,50.7-37.2l86.6-78.7l99.1-91.2l120.4-42.3l56.3-13.8c0,0,1.1,4.1-1.1,13.2c10.5-0.8,33.7-6.1,57.8-14.6
				c9.7-3.8,18.8-5.3,23.7-0.3c7.1,6.7,8.2,22.4,8.6,31.8c11.7-2.6,25.2-13.8,36-12.7c17.3,1.8,32.6,22.2,50.2,22.2
				c23.2,0,33.7-14.3,49.9-25.5c9.7-6.7,23.7-15,31.6-20.6c18.8-13.8,217.8-74.6,217.8-74.6l69.8,4.6l11.2,74.9l-6,195.9
				c-0.7,0.7-1.5,1.4-2.2,2.2l-317.3,165.7l-439.8,67.4c-98.5-16.1-193.6-48.8-281.2-96.7L1071.3,1895.8L1071.3,1895.8
				L1071.3,1895.8z"/>
			<path class="st5" d="M906.6,1787.7c6.3-13.1,11.9-24,12.9-27.9c0.8,7.9,2.2,25.2,5.1,43.6
				C918.5,1798.2,912.5,1792.9,906.6,1787.7L906.6,1787.7z"/>
			<path class="st13" d="M1227.9,1972l56.9-15.8l4.8,1.5c0,0,2.6,1.5,2.6,6.7c7.1-4.1,13.2-3.3,17.6-6.1c2.3,4.8,4.5,20.9,14.6,22.9
				c10.5,2.3,21.7-4.6,33.1-13.2c11.2-8.9,24-20.2,33.7-24.7c3.5,6.5,6.7,13.3,9.4,20.2c12.7-10.2,34.9-51.4,66.4-50.7
				c9.1-21.5,24.4-40,43.8-52.9c29.3-19.9,47.6-21.4,70.5-19.6c9.1-11.8,20.3-21.8,33.1-29.6c3.8,1.5,14.3,7.9,27.3,1.8
				c13.2-6.1,28.1-29.6,47.6-32.6c10.5-1.5,21.3,0.8,30.3,6.4c0,0,57-56.6,96.3-75.4c-1.5-4.6-4.6-21.7,41.6-59.6
				c2.6,2.3,0.8,8.7,2.6,9c0.8,0,12-4.8,26.2-15.8c17.6-13.2,38.7-27,51.4-30.8c24-7.1,49.5,7.4,49.5,7.4c2.2-1.5,4.6-2.6,7.1-3.3
				c6.1-1.1,10.5-1.8,13.8-3c-0.3,7.9,4.1,21.4,0,33.1c4.7,2.7,9.8,4.8,15,6.4c-2.6,5.6-8.2,19.9-17.6,26.7c7.9,3.8,8.9,8.2,20.2,12
				c-4.6,6.4-12,17.3-15.3,24c-3.3,7.1-15.3,36.7-20.6,47.9c-5.6,11.2-13.2,31.9-16.8,36s-16.8,21.7-27,30.3
				c9-3.3,45.8-14.6,61.4-18.8c-4.7,6.8-28.2,41.8-50.9,75.4c-219.5,131.6-485,162.3-728.7,84.4L1227.9,1972z"/>
			<path class="st14" d="M1047.8,981.2c0,0-13.2,0-15.8,1.8s13.2,5.6,18,7.4s15.3,10.2,18.1,16.8c2.6,6.4,94.8,43.5,94.8,43.5
				l65.2-3.3l22.5-31.1l-42.8-37.5l30-88.4l-39.7,6.4l-95.6,57l-47.9,18.4L1047.8,981.2L1047.8,981.2z"/>
			<path class="st15" d="M1191,1010.5c1.9,3.1,5.3,5,9,4.8c13.5,0,25.9,3.3,31.1,10.2c8.7,10.9,32.6,45.8,32.6,45.8l57.3,20.6
				l3.7-67.5l-62.7-43.5l-71.3,26.2v3.3L1191,1010.5L1191,1010.5z"/>
			<path class="st16" d="M1179.8,1035.5c0,0,10.5,0.8,23.7-4.1s34.9-15.3,44.3-11.2c13.2,5.6,10.5,23.2,24.7,39
				c8.6,9.7,24.4,9.4,33.4,19.9c8.9,10.5,39.7,5.6,39.7,5.6l11.7,63l-46.9,60.1l-15.3,74.6h-63.4l-57.9-23l-28.5-69l14.3-69.8
				L1179.8,1035.5L1179.8,1035.5z"/>
			<path class="st17" d="M1302.4,1038.6c1.6,0.5,3.2,0.7,4.8,0.8c-1.8,1.5-5.6,4.8-4.1,13.5s6.4,19.6,2.3,26.2
				c3.3,3.6,5.7,7.8,7.1,12.4c2.6,7.4,3.3,14.3,20.2,15.3c-2.4,1.5-4.7,3.3-6.7,5.3c0,0,11.7,10.2,17.6,19.6
				c6.1-0.3,22.1-5.3,22.1-5.3l3.3,2.3l7.1-3c0,0-6.7-2.6-1.8-18.8c4.5-14.3,8.7-13.5,9-14.6c0.3-1.1,3.3-16.1,3.3-22.2
				c2.3-7.9,4.1-31.8,4.1-31.8l-4.8-52.9l-27.3-16.5l-22.2-21.4l-20.9,39.4l-13.8,13.8l-1.1,34.1L1302.4,1038.6L1302.4,1038.6z"/>
			<path class="st18" d="M1368.1,994.3c0,0,4.8,13.8,6.7,24.4c0.6-2.1,1-4.2,1.1-6.4c0,0,3.8,20.9,4.5,29.6c1.5-0.3,3-0.8,3.3,0.8
				c0.3,1.5,3.8,18.4,3,27.8c6.3-10.4,15.1-19.2,25.5-25.5c6.1-3.8,13.2-7.9,20.6-8.2c11.7-0.3,20.2,7.4,34.1,7.4
				c33.7,0,64.2-24.7,86.6-32.3c16.5-5.6,30.8-9.7,40.8-18.8c4.9-4.1,13.5-13.2,21.4-26.7c10.5-18,21.4-33.7,32.3-35.6
				c-4.9,0.9-10,1.3-15,1.1c0,0,3.3-3.3,9-7.9s12.4-10.2,22.1-10.2c17.3,0,25.9,2.6,35.7,2.6c9.7-0.3,15.3-2.6,15.3-2.6
				s10.2,7.1,33.1,7.1c22.9,0.3,38.2,2.3,50.2,3.3s52.2-3.3,63.7-3c7.5,0.3,14.9,2.1,21.7,5.3l-37.2-108l-133.5-116.7l-79.5,56.3
				l-122.3,122.3l-118.3,43.8l-24.7,27.8v42.3H1368.1z"/>
			<path class="st19" d="M1633.5,932.4c0,0,3.3-3.3,8.9-7.9s12.4-10.2,22.2-10.2c17.3,0,25.9,2.6,35.7,2.6
				c9.7-0.3,15.3-2.6,15.3-2.6s10.2,7.1,33.1,7.1c22.9,0.3,38.2,2.3,50.2,3.3s52.2-3.3,63.7-3c7.5,0.3,14.9,2.1,21.7,5.3l-16.8-48.7
				l-19.6-37.2l-55.8-61.1c0,0-67-39.4-67.5-39.7c-0.3-0.3-23.2-6.4-23.2-6.4l-60.7,36.7l-55.1,142.5l-1.1,30l35.6,16.8
				c8.9-15,18.8-27,28.1-28.5C1639.9,932.4,1633.5,932.4,1633.5,932.4L1633.5,932.4L1633.5,932.4z"/>
			<path class="st20" d="M1632.8,942.5c-5.3,0.3-9.7-0.8-10.9-4.5c-4.6-12.7-8.2-14.6-12-14.6s-8.9,8.2-12,8.9s-6.7-9.4-6.7-9.4
				l-3.3-1.5c0,0-19.6,12.7-33.4,27.8c-13.8,15-36.4,40.5-46.6,45s-45.1,6.1-57,8.7c-11.9,2.6-25.2,11.2-27,13.2
				c-1.8,2,5.3,4.1,6.4,6.1c1.1,1.8-11.7,1.1-12.8,3c-0.8,1.5,3,10.2,4.9,14.6c3.3-1.6,6.8-2.5,10.5-2.6c11.7-0.3,20.2,7.4,34.1,7.4
				c33.7,0,64.2-24.7,86.6-32.3c16.5-5.6,30.8-9.7,40.8-18.8c4.8-4.1,13.5-13.2,21.4-26.7C1621.6,957.5,1627.2,948.9,1632.8,942.5
				L1632.8,942.5L1632.8,942.5z"/>
			<path class="st21" d="M1149.8,1693.3c0,0-3-11.2-30.8-40.2c-7.9-8.2-12.7-15-18-19.9c-13.2-12.4-20.9-15.8-30.3-22.9
				c-20.6-15.3-43.1-15.3-60.4-34.1c-17.3-18.8-37.4-54.8-51.4-91.5c-13.8-36.7-17.6-48.4-17.6-49.4s3.8-8.2,8.6-7.1
				c4.9,1.1,4.9,10.5,6.1,12.7c2.4,3.7,5.2,7.2,8.2,10.5c7.1,8.2,17.3,18,22.5,32.6c-1.1-12.4-5.3-26.2-5.3-26.2
				s26.7,16.8,49.5,34.4c22.9,17.6,32.3,23.7,39,34.9c6.7,11.2,22.4,40.8,30,49.5c7.5,8.6,111,41.3,111,41.3l49.2,36.7l24.4,53.6
				l-19.1,30l-36.7,7.9l-59.6-26.7L1149.8,1693.3L1149.8,1693.3L1149.8,1693.3z"/>
			<path class="st22" d="M1017.3,1508.8c0,0,12.4,19.9,42.8,38.7c27.3,16.5,70.5,31.6,109.1,40.5c22.1,5.3,44.3,9.4,64.2,9.7
				c53.5,0.8,90.4-14.6,136.1-19.6c24.7-2.6,55.1-4.6,86.6-12c40.5-9.7,64.5-20.6,97.1-36c23.7-10.9,45.4-19.1,62.9-29.6
				c24.7-14.6,42.8-30.8,63.7-35.6c-2.6,7.1-5.3,19.9-25.9,33.1c10.9-0.3,25.9-1.1,25.9-1.1s-14.6,8.6-40.2,28.1
				c-15.8,12-36.7,32.3-58.1,45.8c-13.8,8.7-28.8,15-38.7,20.2c-24,13.2-33.7,19.9-49.4,36c5.6-0.3,6.1,0,6.1,0s-19.9,2.6-34.1,10.2
				c-3,0-8.2-1.1-17.3,1.5c-7.1,2.3-16.5,7.4-26.2,10.2c-13.8,4.1-18.3,2.3-18.3,2.3l2.3,4.6c0,0-18-0.3-24,0.3
				c1.1,0.3,0.8,0.8,0.8,0.8c-1.1,0.2-2.1,0.5-3,1.1c-2.9,1.9-6.1,3.3-9.4,4.1c-1.8,0.3-3.3,0.3-5.6,0.8c0.8,1.8,6.7,12,9.4,18
				c-2.3,1.5-36.4,27.3-36.4,27.3c1.1,1.7,1.9,3.4,2.6,5.3c1.1,3.3,1.5,8.2,2.6,10.5c2.6,4.6,4.1,5.3,4.1,5.3s-4.1,0.8-11.2,2.6
				c-6.1,1.5-13.5,4.1-24,5.6c-3.2,0.4-6.5,0.7-9.7,0.8c1.5,3.3,8.2,16.1-4.1,30.8c-12.3,14.7-16.1,16.8-19.9,26.3
				c-1.9-1.4-3.9-2.7-6.1-3.8c-4.1-1.8-9.7-4.5-11.7-8.2c-1.1,4.9-2.7,9.6-4.6,14.3c-3.8,10.2-9.4,20.2-10.5,27.8
				c-4.1-4.6-11.7-13.5-22.2-11.7c-10.5,1.8-18.8,16.1-20.6,20.2c0-2.6-1.8-4.6-2.3-1.5c-0.3,3.3-6.1,38.2-38.2,66.4
				c-0.3-7.1-0.3-22.9-1.1-28.1c-3,3-6.7,7.4-28.5,16.8c-21.4,9.4-18,18.8-18,18.8s-1.8-15,9.7-30.8c11.7-15.8,18.8-23.2,18.8-24.4
				c-0.2-1.2-0.7-2.4-1.5-3.3c-1.5-1.5-4.5-3.3-4.5-4.6c1.8-0.8,19.9-9.4,18.8-27.3c-1.1-16.1-7.9-24.4-12.7-30.3
				c-0.8-0.8,7.1-6.4,6.1-8.2c-0.8-1.1-10.5-8.2-11.7-12c0.3-2.3,0.8-4.5,1.5-6.7c1.1-3.3,1.8-5.6,1.5-7.9
				c-0.8-3.8-4.9-14.3-6.1-15.3c1.1,0.3,8.6,0,8.6,0s-6.1-9.7-7.1-14.3c-1.1-4.6-3.3-16.5-4.6-18.8c2.6,0.3,9,0.8,9,0
				c0.3-2.3-5.6-6.1-3-9c1.8,0.3,5.3,1.8,8.6,6.1c-1.8-4.9-4.8-14.3-11.2-18.1c3-1.1,13.2-3.8,22.2,1.5c8.9,5.3,12,12.7,12,12.7
				s5.3,4.1,13.5,10.2c9.4,7.4,21.4,18,40.5,25.5c4.1,2.3,14.6,2.3,22.2,0.8c3.3-0.8,6.5-2.1,9.4-3.8c1.1-0.6,2.2-1.1,3.3-1.5
				c-1.6-3.3-3.5-6.4-5.6-9.4c2.6,0,5.6,0.3,5.6,0.3s1.8-4.1-6.4-12c1.8-1.8,4.1-3,4.1-6.1c-2.6-0.3-7.1-4.1-8.2-5.6
				c1.5-1.1,3.8-4.6,6.4-5.6c-2.3-1.8-7.9-9.4-10.5-10.2c2.5-0.9,4.8-2,7.1-3.3c0,0-12.7-3.3-16.8-6.1c-4.1-3-10.2-8.2-13.8-9.7
				c-3.8-1.5-10.5-2.3-13.2-5.3c2.6,0.8,6.7,0,9.7,0c2.3,0,3.3,0.3,4.1,0.3c-0.3-1.1-0.3-3.3,5.6-4.1c2.8-0.4,5.6-1.3,8.2-2.6
				c0,0-5.6-0.3-12-6.4s-11.7-10.9-15.3-11.7c-3.8-0.8-10.9,2.6-15.3,2.3c-6.1-0.8-8.7-3.8-8.7-3.8s-20.2,1.8-64.9-25.5
				c-38.7-23.7-55.5-44.6-55.5-44.6c-3.6-1.3-7.1-2.9-10.5-4.9c-14.6-7.6-34.7-23.4-34.1-44l0,0L1017.3,1508.8z"/>
			<path class="st23" d="M1575.4,598.3c3.5,1.1,6.6,3.2,9,6.1c7.1,8.2,11.7,23.7-4.6,40.2c6.4,2.3,9,3,14.6,2.3
				c-5.6,6.7-18.3,20.9-19.1,33.4c-0.8,10.2,5.6,13.2,5.6,13.2s-9.7,11.2-10.2,30c4.6-5.2,9.6-9.9,15-14.3
				c11.2-9,26.7-19.1,37.2-25.5c-0.1,2.7,0.2,5.3,1.1,7.9c0,0,19.6-16.1,36-8.9c7.4,3.3,4.1,13.8,4.1,13.8s10.2-3.8,17.3,3.3
				s17.2,25.5,22.4,32.7c2.3,3.3,8.2,9.7,14.3,19.6c8.3,13.8,15.2,28.4,20.6,43.5c0.3-7.9,2.3-20.2,24.7-12.4
				c22.4,7.9,47.9,24.4,69.3,57s26.7,69.3,37.5,83.3c10.9,13.5,22.2,36,22.9,45.4s-3.3,39.7,19.1,121.8
				c6.4-25.5,16.1-82.1,16.1-82.1l5.3-49.9l6.1-154.4l-161.3-134l-126.1-91.5l-82.1,7.9L1575.4,598.3L1575.4,598.3L1575.4,598.3z"/>
			<path class="st24" d="M1875,828.2c0,0-2.3-15-40.2-40.5c-37.9-25.2-67.5-25.2-94.8-46.6c-20.9-16.8-42.8-55.5-57-68.3
				c-13.8-12.6-16.1-49-16.1-49l46.6-39l69.3-100.1l58.6-64.5l28.1,39l39,45.8l21.7,91.9l7.9,134.6L1875,828.2L1875,828.2z"/>
			<path class="st25" d="M1921.9,989.4c1.1-20.4-1.4-40.9-7.4-60.4c-10-31.1-31.8-86.3-42-107c-4.1-22.9-1.1-24.7,3.3-27.3
				s20.9-12,30-45s37.2-34.1,37.2-34.1l17.3-12.7l26.3,65.7l22.9,59.3l7.1,45.4l5.3,38.7l-12.4,81.8l-61.4,55.5L1921.9,989.4
				L1921.9,989.4L1921.9,989.4z"/>
			<path class="st26" d="M1064.7,1900.8v-1.7c1.3-0.8,2.4-1.8,3.3-3c1.1-1.5,1.8-3.3,2.6-3.8c1.5-0.8,8.7-3,12.4-2.3
				c3.8,0.7,13.8,4.8,19.1,4.6c10.9-0.3,23.7-8.7,43.8-4.8c30.3,5.6,37.5,26.2,55.1,37.9c12,8.2,24.4,4.6,26.2,4.6h4.1
				c0.8,0,6.4-6.4,9.4-6.1c6.1,0.3,6.7,5.3,10.5,5.6c9,1.1,26.3-4.6,34.9-2.3c5.2,1.6,9.3,5.7,10.9,10.9c1.8,5.6,0.3,12.7-4.1,16.8
				c-9.4,8.6-18.3,16.8-20.2,24c2.3,1.8,4.5,3.6,6.7,5.6C1204.4,1967.8,1132.2,1938.9,1064.7,1900.8L1064.7,1900.8z"/>
			<path class="st27" d="M1872.5,1597.7c0,0,23.7-31.6,31.9-47.2c8.2-16.1-25.9-220.1-25.9-220.1l68.6-224.7l-1.8-73.1
				c0,0,3.3-67.5,11.2-96.8c9.4,16.8,38.7,37.2,45.1,47.9c3-20.6,13.2-64.2,11.7-110.6c5.6,8.6,19.1,95.6,19.1,95.6l13.5,58.5
				l17.6,62.2l19.6,65.7l11.7,45.4l6.7,10.9l5.6,19.1l5.3,20.6l15.3,48.4l9,39.7l7.1,72.1c1.6,5.5,2.7,11.1,3.3,16.8
				c0.3,7.9-1.1,12.4-1.1,13.8s2.6,17.3,1.5,29.3c-1.5,12-1.5,21.4-10.9,30c-9.4,8.6-15.3,60.1-15.3,60.1l-16.8-11.2
				c0,0,3.3-15.3-4.6-29.3c-7.9-14-23.2-16.8-31.9-14.6c-8.6,1.8-25.9,4.5-31.5,9.4c-5.3,4.8-18.3,19.9-30.3,26.7
				c-15,9-39.4,9.7-52.5,12.7c-13.2,3-27.8,12-43.1,22.4C1898.4,1585.5,1885.7,1592.2,1872.5,1597.7L1872.5,1597.7L1872.5,1597.7z"
				/>
			<path class="st28" d="M1872.5,1929.2c0,0,1,0.7,2.9,1.7c107.8-50.5,204.3-122.1,284-210.5c-0.9-30.7-2-62.2-3.2-73.8
				c-2.6-24.7-0.8-49.9-1.5-64.5s-8.9-73.9-12.7-89.2c-4.1-15.3-12-22.9-13.2-22.9c-1.1,0.3-7.4,28.8-7.4,36s-1.5,24.4-1.5,28.8
				c-1.1-0.3-1.5-3-1.5-4.1c-1.5,3.8-3.3,10.5-4.1,11.2s1.1-6.4,0-7.9s-3-0.8-2.6-4.6c0.2-2.2,0.5-4.5,1.1-6.7c0,0-4.6,6.7-7.9,23.7
				c-3.3,16.8-3.3,17.3-4.6,18.8c-1.1,1.8-7.1,7.9-7.4,10.2c-0.3,4.1,5.6,8.2,6.1,10.5c0.3,3.8-5.3,21.4-7.1,30
				c-1.8,8.6-1.1,25.5-3,34.1c-1.5,7.9-3,12.4-8.2,15.8c3.8,0.8,7.4,1.8,7.4,1.8s5.3,22.4-8.2,41.6c-4.9,6.7-6.1,9.7-11.2,15.8
				c-10.2,11.2-18.1,24-18.8,32.3c-0.5-2.5-0.9-4.9-1.1-7.4c0,0-15.8,18.4-22.4,28.8c-8.6,13.5-20.6,12.7-24,16.1s-4.1,9.4-3,14.3
				c-3,0.8-8.6,1.8-12.4,13.5c-1.8,6.1-6.4,12-13.5,16.1s-15.8,5.3-20.2,6.4c3.8,1.1,5.3,1.1,7.1,2.3c-2.3,3.8-12.7,9.7-24.4,17.3
				c-11.7,7.1-17.3,17.6-20.2,24.4c-3,6.4-7.4,10.5-14.6,11.2c3,1.8,7.4,6.1,9.7,7.4c-3.3,0.8-9,0.8-19.1,9.4
				C1881,1925.9,1877.4,1928.4,1872.5,1929.2L1872.5,1929.2L1872.5,1929.2z"/>
			<path class="st29" d="M1661.4,1999.5c5.8-4.1,12.1-7.4,18.7-9.9c23.7-9.4,48.7-11.2,58.6-14.3c9.4-3,16.8-7.1,28.5-9.4
				c-0.3,2.7-0.6,5.2-0.8,7.5C1731.9,1984.2,1696.8,1993,1661.4,1999.5L1661.4,1999.5z"/>
			<path class="st30" d="M2097.8,1377.2c0,0-4.9,26.2-13.5,42.8c-8.7,16.5-18,39.4-18,39.4c0.1-5.2,0.7-10.3,1.8-15.3
				c-10.9,6.4-37.5,21.7-45,28.5c-7.1,6.4-19.1,17.6-22.2,22.9c7.1-20.9,14.6-39.7,15.8-48.4c-10.9,7.9-61.9,49.9-88.4,77.7
				l-82.7,66.9c-9.5,5.1-19.4,9.7-29.4,13.8c-14.3,6.1-31.1,11.2-43.5,16.1c3.3-8.9,8.6-16.8,16.1-24.4c7.9-7.4,31.6-33.1,35.2-45
				c3.3-12.4,4.1-19.9-0.3-30.3c-4.1,1.1-13.5,1.5-19.9,3.3s-13.2,8.6-13.2,8.6s4.8-27.8,15.3-54c-7.9,0.3-21.4,2.6-21.4,2.6
				s18.8-31.6,51-53.5c-9.9,2.1-19.5,5.1-28.8,8.9c-18.8,7.9-39.4,19.6-54.8,25.9c8.6-12,69.3-98.6,105.4-179.3
				c36-80.6,49.4-101.2,57.3-144.4c4.1-21.4,3-53,4.1-81.3c1.1-28.1,4.6-53.2,2.3-70.1c9.4,11.7,44.6,44.6,45.8,118.2
				c1.1,73.6-33.7,172.9-70.5,226.5c9,2.6,32.3,5.6,56.3-36s23.7-53.2,32.3-70.5c1.1,8.7,0.8,11.7,0.8,11.7s34.9-42.3,51.4-95.6
				c3.3,22.9,13.2,43.1-2.3,85.1c-13.8,37.9-31.8,47.2-31.8,47.2s8.9-1.5,22.1-9.4c2.3,5.6,1.8,12,5.6,14.3s8.9,6.1,9.7,9.7
				c4.1-6.1,10.5-13.8,12.4-19.6c-1.5,12-2.6,64.5,3,91.2c11.7-1.1,23.7-1.8,31.9-22.9c-5.6,20.6-5.6,33.1-1.8,50.7
				C2092.1,1384.7,2097.7,1377.1,2097.8,1377.2L2097.8,1377.2L2097.8,1377.2z"/>
			<path class="st31" d="M1703.6,541c0,0-11.7,4.8-31.6,4.8c-17.3,0-12.4-6.7-39.4-6.7c-41.6,0-186.7,24-212.2,23.7
				c-16.5-0.3,55.8,7.1,55.8,7.1l184.9,2.6l37.2-3l13.8-28.1L1703.6,541z"/>
			<path class="st32" d="M1224.1,902.5c0,0-23.7,18-33.7,31.9s-15.3,22.9-26.7,34.1c2.7,0.1,5.3-0.3,7.9-1.1c0,0,0,3-1.8,3.8
				c3.2-0.4,6.4,0.7,8.6,3c-3.3,1.8-12.4,10.9-5.3,21.7c5.3,8.2,16.5,8.9,16.5,8.9s-2.6,7.4,8.2,6.7c23.2-1.1,49.2-11.2,61.1-8.7
				c12,3,18.8,4.1,27.3,18.8c9,14.6,16.8,16.8,16.8,16.8s5.3-13.5,4.1-33.7c4.4-10.9,6.8-22.4,7.1-34.1l-7.9-58.1l-34.4-43.5
				l-44.6,24.7L1224.1,902.5L1224.1,902.5z"/>
			<path class="st33" d="M1266.4,893.8c0,0,3.3,7.9,17.3,8.6c-1.5,3.3-1.5,3.8-1.1,6.4c0.3,2.6,0.8,6.4,0.8,6.4
				c1.5-0.7,2.9-1.8,4.1-3c0.8,3.3-0.8,8.6,0,12.4c0.5,2.3,1.2,4.6,2.3,6.7c0.2-0.5,0.5-1,0.8-1.5c0.3-0.8,3,8.2,10.5,15
				c0-1,0.3-2.1,0.8-3c0.1,1.9,0.7,3.7,1.8,5.3c-0.6-0.3-1.1-0.6-1.5-1.1c0,0,0.8,24,4.8,36.4c0.7-0.8,1.3-1.7,1.8-2.6
				c0-0.8-0.3,6.7-1.1,12c-1.1,5.3-0.3,12.7-0.3,12.7c2.7-2.2,5.7-3.9,8.9-5.3c4.6-1.8,12-7.4,16.5-19.9c2.6-7,4.7-14.3,6.1-21.7
				c1.5,2.8,2.5,5.9,3,9c0.3,3.8,7.4,1.8,7.4,1.8l1.5-16.5l9-37.5l8.2-23.2l39.4-61.4l71.3-54.9l62.2,14.3l52.5-71.3l-90.4-54.3
				l-85.6,9l-77.7,107.5l-62.2,97.5L1266.4,893.8L1266.4,893.8L1266.4,893.8z"/>
			<path class="st34" d="M1714.5,738.2c0,0-5.3,1.1-20.6,9s-25.9,10.5-31.9,22.1s-6.4,20.9-6.4,20.9s10.5-4.5,16.5-6.1
				c6.4-1.5,13.5-1.1,12.7,1.5c-0.7,1.8-1.7,3.4-3,4.8c0,0,12-0.3,11.7,5.6s-2.3,12.4-4.5,15.3c-2.3,3-11.7,7.4-12.7,10.9
				c-2.6,7.1,1.1,7.4-0.3,13.2c-1.1,5.6-6.1,16.5-22.4,35.7c-16.8,19.1-24,32.6-24,32.6s-8.2-15.3-12.4-28.5
				c-3,1.5-19.1,10.5-19.1,10.5l-37.3-130l0.8-8.7c0,0,3.3-4.1,4.1-11.7c-5.6-1.8-6.4-3.3-13.8-10.5c-7.4-7.1-13.5-15.8-25.9-21.7
				c-1.8-3.3-4.1-7.9-13.2-9.7c-9.1-1.8-14.6-3.3-14.6-3.3s4.8-1.8,7.1-5.6c-5.6,0.8-10.2,2.6-22.4,2.3c-12.4-0.3-13.8-0.8-20.6,0.3
				c-6.8,1.1-15,4.1-18.1-6.4c-3.3-2.6-10.5-0.3-16.5,8.6c-6.1,8.9-8.2,16.1-19.9,19.6c-0.8,5.1-2.6,10.1-5.3,14.6
				c-3.3,5.6-8.7,11.2-15.8,19.6c-11.2,13.2-9.4,34.9-27.3,51.4c-18.1,16.5,3-45.8,3-45.8l28.8-69l82.1-80.3l127.4-8.6l12.4,66
				l62.2,21.4L1714.5,738.2L1714.5,738.2L1714.5,738.2z"/>
			<path class="st23" d="M1734.7,752.8l-53.6-77.2l-37.5-28.8c0,0-26.7-49.1-28.5-50.7c-1.5-1.1-26.7-3.8-42.8-4.8l3,7.4
				c3.5,1.1,6.6,3.2,9,6.1c7.1,8.2,11.7,23.7-4.6,40.2c6.4,2.3,9,3,14.6,2.3c-5.6,6.7-18.3,20.9-19.1,33.4
				c-0.8,10.2,5.6,13.2,5.6,13.2s-9.7,11.2-10.2,30c4.6-5.2,9.6-9.9,15-14.3c11.2-9,26.7-19.1,37.2-25.5c-0.1,2.7,0.2,5.3,1.1,7.9
				c0,0,19.6-16.1,36-9c7.4,3.3,4.1,13.8,4.1,13.8s10.2-3.8,17.3,3.3s17.3,25.5,22.4,32.6c2.3,3.3,8.2,9.7,14.3,19.6
				c8.3,13.8,15.2,28.4,20.6,43.5c0.3-6.1,1.5-14.6,12-14.6L1734.7,752.8L1734.7,752.8z"/>
			<path class="st35" d="M931.9,972.1c0,0-3.8-9.4,0-27.8c3.8-18.4,9.7-27,11.7-54c2-27,19.6-60.7,19.6-60.7l48.7-22.1l34.4,9.4
				l10.2,46.1l-43.5,24c0,0-2.3,10.2-14.6,18.3c-12.3,8.2-29.3,14.6-33.4,22.9c-2.4,5.1-4.2,10.5-5.3,16.1c0,0-12.4-2.6-19.9,5.6
				C931.9,958.4,932.2,965.8,931.9,972.1L931.9,972.1z"/>
			<path class="st36" d="M1030.2,959.8c0,0-4.1,2.6-7.1,9c-3-4.8-10.2-33.7-10.5-59.6s-1.9-32.4,4.1-41.3s29.5-18.4,26.2-34.5
				c-3.3-15.3-17.3-21.7-34.4-17.3c-12,3-20.9,28.5-33.4,41.3c-9.4,9.7-20.6,8.2-23.7,13.5c-4.1,7.1-0.3,14.3-1.5,18.8
				c-0.3,1.5-4.1,9.7-10.9,19.6c-13.8,19.9-37.2,47.9-40.2,73.1c1.1-14.3,0.3-14.6,4.1-30.3l-2.3-3.8l15-49.2l9.7-40.5l21.7-67.8
				l38.2-69.3l37.2-41.6l38.7,2.6l4.5,58.1l22.2,109.1l46.6,57.3l-74.6,50.2L1030.2,959.8L1030.2,959.8L1030.2,959.8z"/>
			<path class="st37" d="M1053.4,980.4c0,0-6.4,1.5-8.6,0.3c-2.3-1.2-4.5-2.6-3.8-4.1s4.8-4.1,4.8-5.3c0.2-2.3-1.5-4.3-3.8-4.5
				c-3.5-0.5-4.5,1.8-4.5,1.8s-3.3-2.6-6.1-3c1.6-0.2,3.2-0.3,4.9-0.3c-4.2-1.9-8.6-3.2-13.2-3.8c3.8-2.3,11.2-9,16.1-9
				s7.9-0.8,7.1-3.3s-4.5-6.4-8.6-7.9c1.5-1.8,2.6-4.5-1.1-12c-3.8-7.4-2.3-12.4-1.1-14.3c1.1-2.3,4.9-6.4,6.7-9
				c1.8-2.6,3.3-6.1,6.4-7.9c1.5-1.1,6.4-3,11.2-4.8c5.3-1.8,9.7-4.1,12.7-1.8c3.3,2.3,1.8,5.3,1.8,5.3s10.5-3.8,19.9,1.1
				c9.4,4.5,32.3,7.4,32.3,7.4l8.2,16.5l-54.3,46.6l-22.4,11.2L1053.4,980.4L1053.4,980.4L1053.4,980.4z"/>
			<path class="st38" d="M1128.8,904.3c0,0-16.8,11.2-20.6,15.3c2.3,0.3,6.1,1.8,4.5,4.1c-1.8,2.3-12.7,10.2-18.8,17.6
				c-6.4,7.4-12.4,16.8-14.6,21.4c-2.3,4.1-19.6,16.1-25.5,17.6c12.4,0,37.5-15.3,46.9-15.3c-0.3,4.5,2.6,9.7,7.9,10.2
				c5.3,0.4,20.6,3.3,41.3-9.4c20.6-12.4,13.8-21.7,22.4-27.8c16.5-10.9,23.2-20.6,32.3-26.7s13.8-7.4,13.8-7.4s0.3-4.5,3-4.1
				c1.5,0.2,2.8,1.2,3.3,2.6c0,0,15.8-11.2,36-14.3c-0.5-0.2-0.8-0.6-1.1-1.1c0,0,1.5-0.8,1.8-1.5c0,0,1.1-1.5,1.8-0.8
				s1.8,6.4,3.3,8.7c3.3-1.5,9.7-15.8,9.7-15.8l15.3-43.8v-40l-12,2.3l-90,38.2l-54.6,56.6L1128.8,904.3L1128.8,904.3z"/>
			<path class="st39" d="M1387.9,707.9c4.9-1.2,9.5-3.1,13.8-5.6c-1.8,4.9-1.8,10.2-9.7,21.7s-8.2,13.2-14.6,25.2
				c-6.4,12.4-7.1,30.3-13.2,38.2c2.7-1.3,5.6-2.2,8.6-2.6c0,0-6.1,5.3-8.6,10.9c-2.6,5.6-7.1,17.3-18.3,24.4s-25.5,11.7-40.8,28.5
				c-15.3,16.5-31.1,37.5-39,45c4.1-7.1,9.7-21.4,11.2-30.8c1.5-9.4-0.3-20.6,2.3-33.1c2.6-12.4,2.6-21.4,15-43.1
				c12.4-21.7,33.7-97.1,33.7-97.1l45.8-14.6L1387.9,707.9L1387.9,707.9L1387.9,707.9z"/>
			<path class="st40" d="M1354.9,680.1c0,0-13.8,19.9-17.6,37.5c-3.8,17.6-0.3,16.1-2.6,24.7c-1.4,5.3-1.4,10.8,0,16.1
				c4.8-7.7,11.3-14.2,19.1-18.8c13-7.9,23.7-13.5,30-20.2c6.4-7.1,11.7-18.8,25.5-27.8c-5.6-0.8-13.5-3.3-15-3
				c5.6-6.4,22.4-16.1,39.4-27.8c16.8-12,15.8-16.8,43.1-28.8c-9,1.5-13.2-0.8-20.6,0c3-6.4,13.5-9.4,24-19.9
				c10.5-10.5-6.7-25.9-6.7-25.9l-80,48.4L1354.9,680.1L1354.9,680.1z"/>
			<polygon class="st41" points="1137.8,644 1139.6,629.4 1162.5,592.7 1186.5,528.3 1186.5,440.1 1184.7,389.1 1188.4,355.8 
				1191.3,345.2 1194.4,341.1 1213.9,351.2 1240.9,387.9 1243.5,458.8 1217.3,570.6 1142.3,652.3 			"/>
			<path class="st31" d="M1197.4,337c0,0-12,0.3-14.6,50.2c-2.6,49.9-3.8,76.2-5.6,100.9c-1.8,24.7-6.1,39.7-8.2,54.3
				s-3.3,34.4-10.2,46.6c-3,5.6-9.4,23.2-24.4,36.4c-16.8,14.6-42,24.7-45.8,25.5c-6.7,1.5-40.5,4.9-54.3,12.4
				c-4.9,2.6-13.2,5.6-22.5,14.3c-18.4,16.5-42.8,46.1-60.4,81.8c-27,53.3-54,203.6-54,203.6l6.1-10.2c0,0,0.8-13.5,14.3-37.2
				c13.2-23.7,9.4-50.2,27.8-95.6c7.1-17.3,16.1-39.7,27-58.9c17.3-31.1,38.2-57.8,59.3-72.4c34.4-23.7,72.4-28.8,72.4-28.8l40.8-27
				c0,0,7.1-13.8,16.5-29.6c13.2-22.1,30-46.9,33.7-82.8c5.6-53.2-7.9-88.1-7.1-119.7s1.1-54.8,7.4-60.4
				C1202,334.8,1197.4,337,1197.4,337L1197.4,337L1197.4,337z"/>
			<path class="st42" d="M1197.4,575.1c0,0,18-44.3,26.2-83.6c1.5-7.9,4.5-15.8,5.3-22.1c3.8-37.2,4.8-52.5,0-72.8
				c-3.8-15-18.3-28.5-25.9-39c-7.4-10.9-10.9-15-9.4-17.3c1.5-2.3,7.4-6.1,13.2-5.6c12.4,0.4,24.1,5.8,32.3,15
				c11.7,13.5,20.9,59.3,20.9,59.3l9.7,60.5l24.7,76.1L1197.4,575.1L1197.4,575.1L1197.4,575.1z"/>
			<path class="st43" d="M1366.5,529c0,0-3.3,1.5-9.4,0c0.5,5-1.8,10-6.1,12.7c-6.4-2.6-66,2.6-66,2.6s-27.8-4.9-36.4-41.6
				c-6.1-24.4,4.5-58.1,1.1-80.3c-5.3-32.6-12.7-39-13.5-49.1s-1.5-12.7-1.5-19.1c-3.3-0.8-5.3-1.8-8.6-1.8c-0.8-3,0.8-5.6-2.6-10.9
				c1.8,0.8,14.3,2.3,28.8,16.1c12,11.2,12,15.3,13.8,17.6c2.3,2.3,20.6,18,28.5,33.7c7.9,15.7,23.2,65.7,26.7,73.9
				c1.1,3.3,3.3,6.7,9,14.3C1339.1,507.9,1352,526,1366.5,529L1366.5,529L1366.5,529z"/>
			<path class="st31" d="M1268.2,375.9c9.2,14.8,17.4,30.2,24.7,46.1c8.9,20.2,14.3,36.7,25.5,50.2c-6.1-17.6-16.8-52.2-23.2-64.5
				C1288.1,394.8,1273.6,380.8,1268.2,375.9L1268.2,375.9L1268.2,375.9z"/>
			<path class="st44" d="M1165.1,625.3c0,0-15.3,3.8-43.8,18.8c-9.4,4.9-18.3,8.9-27,12.7c-22.5,10.2-46.6,19.6-65.7,24.7
				c1.5,1.8,2.3,2.6,2.3,2.6s0,7.4,4.1,11.7c-2.3,2.3-32.6,22.9-23.7,91.9c6.1-2.3,13.2-5.3,14.3-5.3c1.8,0.3,2.3,5.3,4.5,5.3
				s9.7-3,17.6-13.2c-0.3,4.1-4.8,45.4,19.6,73.1c4.5-5.3,16.1-22.9,16.1-22.9l0.3-5.6c0,0,1.1-19.6,7.4-37.5s18.8-31.1,18.8-31.1
				l64.9-92.7L1165.1,625.3L1165.1,625.3L1165.1,625.3z"/>
			<path class="st45" d="M1104.4,761.4c-3,2.1-6.2,3.7-9.7,4.8c-1.1-3.8-2.6-16.8,6.4-29.6c10.5-15.3,33.4-35.2,39.7-51
				c4.1-10.2,2.3-35.7,38.7-68.3c36.4-32.6,50.7-43.8,50.7-43.8L1289,544l72.4,28.5l-35.9,140.9l-27.9,66l-111-20.9L1104.4,761.4
				L1104.4,761.4L1104.4,761.4z"/>
			<path class="st46" d="M1146.8,723.2l13.8-17.3v-12.3c0,0,15.3-4.1,31.8-20.9c16.5-16.8,39.4-49.1,59.6-47.2
				c20.2,2.3,22.2,43.8,22.9,55.5c0.8,11.7,3.3,38.2,7.4,52.5c4.6,14.3-49.2,68.3-49.2,68.3l-36.5,27.8L1146.8,723.2L1146.8,723.2z"
				/>
			<path class="st47" d="M1189.5,867.1c0,0,11.2-17.6,3-21.4c4.8-10.9,13.8-22.5,13.8-22.5s6.4-15.8,27-35.2s33.4-32.3,36.7-45.4
				c2.1-8.5,3.2-17.2,3.3-25.9c2.2,1.8,4.6,3.4,7.1,4.8c3.3,1.5,19.1,14.6,16.8,40.8c-2.3,26.3-12,37.2-12,37.2s-9.4,9.4-16.1,14.3
				c-7.1,4.8-9.7,10.5-21.7,10.9c1.2-1,2.6-1.8,4.1-2.3c0,0-12.4-1.5-19.1,4.5c-6.7,6.1-20.9,24.7-28,30.4
				C1197.4,862,1189.5,867.2,1189.5,867.1L1189.5,867.1L1189.5,867.1z"/>
			<path class="st48" d="M1693.9,572.1c-17.9-6.5-36.8-10.2-55.8-10.9c-31.9-1.1-78.4,0.8-124.1,1.1c-49.2,0.3-93.8-16.8-155.6-19.9
				c-10.2-6.1-36-32.6-116.7,23.7c4.8-0.3,58.6-12.4,77.2,10.9c18.8,23.2,13.5,62.6,10.9,72c-4.9,20.9-20.6,51.4-27,72.8
				s-4.9,32.6-9.4,47.6c-4.6,15-14.6,22.5-8.7,39.7c7.9-4.8,12-4.8,25.2-34.4c13.2-29.6,10.5-50.7,32.3-75.7
				c21.4-25.2,57-59.6,70.5-68.3c13.5-8.6,121.1-64.5,233.6-11.2C1673.6,616.7,1693.9,572.1,1693.9,572.1L1693.9,572.1L1693.9,572.1
				z"/>
			<path class="st49" d="M1287,551.4c-0.1-1.1-0.4-2.3-0.8-3.3c-1.1-2.2-2.4-4.3-4.1-6.1c0,0-26.7-4.8-40.2-3.3
				c-23.7,2.6-45.1,31.9-55.1,46.9s-22.5,38.2-36,50.2c0.1-1.2-0.1-2.4-0.8-3.3c0,0,0.8,1.1-0.8,2.6c-1.5,1.5-1.5,2.3-0.8,3l2.3,2.3
				c0.8,0,21.7-9.4,50.2-36c30.3-27.8,53.5-42,65.7-46.9C1273.4,554.7,1280.1,552.7,1287,551.4L1287,551.4L1287,551.4z"/>
			<path class="st50" d="M1805,437.4c0,0-4.9,6.1-10.9,12.7c-13.5,14.3-31.1,30.3-46.1,46.9c-14.3,15.8-30.3,28.1-48.4,48.7
				s-39,43.5-44.3,50.2c-4.8,6.7-8.6,17.6-8.6,23.2c-2.6-1.8-5.6-3.8-5.6-3.8c1.3,2.4,2.8,4.6,4.6,6.7c3.8,5.3,9.7,12,12.7,16.1
				c3.7,5.2,6.4,11.1,7.9,17.3c1.8,0.3,13.5,2.6,28.1-21.4s33.7-50.2,33.7-50.2l30.3-45.1l19.1-38.2l24-42.8L1805,437.4L1805,437.4
				L1805,437.4z"/>
			<path class="st31" d="M1836.1,406.7c0,0-18.4,15-25.5,24s-24,32.6-24,32.6l6.1-0.8l30.8-27.3l12-21.4L1836.1,406.7L1836.1,406.7z
				"/>
			<path class="st51" d="M1830.4,1612.3c0,0-0.3-12.4,6.7-19.9c7.1-7.4,25.2-18.4,42.8-59.3s19.6-50.2,19.6-50.2s-31.6,27-51,33.4
				c4.6-9.4,7.1-16.1,9.4-20.9c-2.6-2.3-13.5-4.8-14.6-6.1c6.1-6.1,9.4-20.9,21.7-30.8c15.8-12,44.6-32.6,67-51s66.4-61.1,72.1-73.6
				c3.3,4.8,4.1,7.9,4.1,7.9s-22.1,28.8-33.7,47.2c-10.2,15.8-9.4,24.7-9.4,24.7l20.9-9c0,0,6.1,22.4-21.4,56.6
				c12-4.6,16.8-1.8,23.7-5.6c-11.2,7.1-26.7,16.8-41.3,43.5c-14.3,26.7-33.7,57.8-66.4,77.2
				C1848.7,1596.9,1830.4,1612.2,1830.4,1612.3L1830.4,1612.3L1830.4,1612.3z"/>
			<path class="st52" d="M1748.2,587.9c0,0-12.4,25.9-14.3,46.1c-0.3,4.9-1.5,8.6-1.5,14.3c-0.3,18,1.1,38.2-3,47.6
				c-1.5-3.8-2.3-6.4-3.8-7.9c-2.3,6.4-6.4,26.2-9.7,33.7c-1.5-4.8-4.8-21.7-4.5-41.6s0.8-23.7,0.8-27.8c-0.8,6.1-4.8,14.3-6.4,19.1
				c-2.3-4.1-4.8-9.4-7.9-13.8c-1.8,3-4.1,7.4-6.1,9.7c-0.3-1.8-1.1-6.7-1.5-13.5c-0.3-7.9-0.8-18-0.3-20.2
				c0.8-4.1,7.1-20.2,20.6-34.9c16.1-17.6,32.6-51.4,37.5-61.9s25.5-54,25.5-54h15.8l-22.9,52.2c0,0-13.8,28.5-20.9,39
				c-7.1,10.5-22.2,40.5-28.8,52.2c4.8-6.4,8.9-9.7,13.8-15.8C1735.2,606.2,1748.2,587.9,1748.2,587.9L1748.2,587.9L1748.2,587.9z"
				/>
			<path class="st53" d="M1836.4,404.8c-2.6,7.9-6.7,15.3-12,21.7c-9.4,11.2-29.6,26.2-39.4,38.2c-9,11.7-27,43.5-18.8,81.3
				c3-8.2,8.7-24.4,23.7-42.8c15-18.4,31.1-39.4,39-55.8c7.9-16.5,8.9-29.6,8.9-29.6l3-3.8l-1.8-8.6L1836.4,404.8L1836.4,404.8z"/>
			<path class="st31" d="M2143.5,1411c0,0-6.1-16.5-7.9-31.6s3-18-2.6-35.2c-3.3-10.5-9.4-9-10.9-10.5s-2.6-17.3-2.3-25.9
				c0.3-8.6-0.3-19.9-1.8-24.7c-2.3-1.8-3.8-3.3-7.1-14.6c-3.8-11.2-5.6-16.8-7.4-20.2s-7.1-6.4-7.1-9.7c0-6.7,6.1-10.2,6.1-12
				c-0.3-3.8-4.9-0.8-6.1-1.8c-1.5-1.8,3.8-12.7,1.8-14.3c-0.8-0.8-6.1,5.6-7.4,3.8c-1.5-1.8-3.3-19.9-6.1-31.9
				c-2.6-11.7-5.3-20.2-5.6-23.7c-0.3-3.3-20.9-62.2-25.9-76.5c-4-12-7.4-24.3-10.2-36.7c-1.5-7.1-2.6-21.7-3.3-20.2
				s-0.3,8.9-1.5,8.7c-1.1-0.3-4.8-26.2-6.1-30.3c-1.1-4.1-7.4-18-9-28.1c-1.5-10.2-4.8-36.7-7.1-54.8s-3.3-25.5-3.3-30
				c0.4-11.1-0.2-22.1-1.8-33.1c-3-19.1-9-42.3-14.3-55.8c-10.2-25.5-37.2-90.7-42-107c0-4.1,5.3-1.8,5.3-1.8s13.2,33.1,22.9,58.5
				c9.4,25.5,18.4,47.9,20.6,50.2c1.8,2.3,16.1,27.3,22.4,68.3s8.6,78.7,12.4,103.9c1.8,12,3.3,24.7,7.1,37.5
				c4.1,13.8,10.5,28.1,18.8,49.9c7.1,18.4,12.4,33.7,15.3,46.9c3.3,16.8,3.3,29.6,5.3,37.9c1.8,7.1,4.6,21.4,10.9,42
				c6.4,20.6,15.8,47.2,22.1,63.7c12.4,33.1,18,60.7,19.9,75.4C2139.4,1342.7,2145,1395.2,2143.5,1411L2143.5,1411L2143.5,1411z"/>
			<path class="st54" d="M1837.1,402.9l-0.8,1.8c0,0,2.3,0.8,1.8,3.8c0,4.2-0.2,8.3-0.8,12.4c-0.8,5.3-2.3,9.4-2.6,12.7
				c0,7.1,1.1,15.3-9,35.6c-3,5.6-4.8,10.5-6.4,13.8c-3.8,8.2-4.6,9.4-7.9,13.2c5.3-3,24.4-15,34.1-13.2
				c-6.7,3.8-16.8,11.2-23.2,20.9c1.5,0.3,7.9,1.5,18,0c16.8-2.6,35.7-8.6,52.2-7.4c18.1,1.1,10.9-21.7,10.9-21.7l-20.8-45.8
				l-39.4-27.8L1837.1,402.9L1837.1,402.9z"/>
			<path class="st55" d="M1940,746.1c0,0-17.6-17.6-24.7-78c-7.1-60.7-5.6-150-5.6-150l-14.3-34.9c0,0-3-23.2-10.5-31.9
				s-22.1-23.2-28.8-30.3s-14.3-16.8-18.8-18.4c2.3-3.8,12.4-25.2,51.4-25.5s51,21.4,55.1,29.3c4.1,7.9,22.4,42,29.3,107
				c6.4,64.9,6.7,69.8,5.6,92.2c-0.8,12.4-4.9,41.3-12,72.1C1960.1,703.8,1953,733,1940,746.1L1940,746.1z"/>
			<path class="st52" d="M1884.8,797.8c5.9,0.4,11.7-0.9,16.8-3.8c5.6-0.3,25.9,2.3,41.6-17.6c1.1,4.5,3.8,16.8-3.3,27.8
				c3.8-3.8,9.4-5.3,10.2-6.4c0.3,5.6,5.6,22.9-16.8,64.9c6.1-6.7,13.2-6.4,19.6-7.1c0.3,7.9,4.6,34.4-6.7,48.7
				c-7.4,9.7-19.6,6.7-19.6,6.7c0.2-2.1,0.2-4.3,0-6.4c-0.3-4.1-1.8-8.2-0.8-10.9c-5.9-2.7-11.2-6.4-15.8-10.9
				c-13.2-12.4-30.3-33.7-31.6-49.5c-1.5-17.6,14.3-21.4,14.3-21.4c-1.3-1.2-2.4-2.6-3.3-4.1
				C1888.6,805.3,1887.8,801.2,1884.8,797.8L1884.8,797.8L1884.8,797.8z"/>
			<path class="st56" d="M1767.8,607c0,0-0.8-1.1-4.8,3.8c0.8-4.9,1.5-9.4,1.8-13.8c1.9-4.1,4.4-7.9,7.4-11.2
				c-2.3,4.5-3.8,8.6-3.8,8.6s5.6-10.5,13.8-16.8c5.6-4.5,12.7-6.7,15.8-10.9c3.3-4.5,2.6-5.3,3.3-6.1c0,0,7.4-4.8,18.8-19.1
				c1.5-1.8,3.8-3.8,5.3-5.6c2.6-1.1,8.6-3.8,15.8-7.4c7.4-4.1,15.8-9.7,20.9-12c10.2-4.5,20.9-4.1,25.9-11.2
				c3.8-1.1,7.9-12.4,7.1-22.1c5.6,2.3,34.4,20.2,44.3,59.3c7.1,27.8-5.6,70.5-10.9,91.2c-5.3,20.6-6.1,36-13.5,45.3
				c-9.4,12.5-39.7,30-47.2,38.7c-6.4,7.1-25.5,25.2-24.7,38.2c0.8,9.7,12.7,15,15.3,16.8s2.6,4.1,7.4,3s6.7-3.3,8.7-3.3
				c2.3,0.3,2.3,0.8,3.3,0.8c0.8,0,1.5-0.1,2.3-0.3c0,0-0.8,13.8-33.1,18c-2.3,0.3-4.6,1.1-7.4,1.5c3.8-1.8,6.1-1.8,10.2-7.4
				c-4.6-0.8-17.6-1.5-20.9-2.6c1.1-1.8,4.6-6.7,7.4-9c2.6-2.3-0.3-3-2.6-1.8c-3.9,2.7-7.7,5.5-11.2,8.6c-3.8,3.3-7.1,7.9-13.2,12
				c-1.8-6.1-1.5-17.6,5.6-25.9c-1.8,0.3-5.3,5.6-8.7,4.5c-0.6-5.5-0.2-11.1,1.1-16.5c1.8-6.8,11.7-18.8,11.7-18.8l47.6-85.1
				l10.2-64.5L1767.8,607L1767.8,607L1767.8,607z"/>
			<path class="st57" d="M1765.2,610.6c0,0-2.6,1.8,2.6,5.3c-0.8,1.1-2.6,4.8-4.9,7.4c-2.6,3-5.3,4.9-6.4,7.4
				c-2.3,5.3-4.1,9-4.1,11.2c0,2.3-0.8,16.8-7.1,26.2c-2.3,3.3-4.9,9-6.7,12.7c-3.8,6.7-7.1,12-7.9,15c-1.5,5.3-2.6,19.9-2.6,19.9
				s3.3-4.1,4.6-5.6c-1.8,3.8-3.8,7.9-6.7,10.9c1.8-1.5,7.1-5.3,16.1-13.2c12.4-10.5,31.9-28.1,55.5-42c-7.1,2.6-13.2,2.6-18.1,3.3
				c3.8-3.8,37.9-43.8,55.8-47.6c1.1-1.4,1.6-3.1,1.5-4.9l-15.3-1.5l-31.1,6.7l-4.5-24L1765.2,610.6L1765.2,610.6z"/>
			<path class="st58" d="M1814.7,747.2c0,0-4.1,4.1-7.9,14.3c-2.9-3-5.4-6.5-7.4-10.2c-5.6-9.4-14.3-21.4-34.4-14.6
				c-0.3-6.4-0.8-9.7,0-14.3c3.3-0.8,13.5-8.9,23.7-20.9c7.1-8.2,13.8-17.6,18.4-29.6c3-2.3,8.2-6.1,15-10.5
				c9.7-6.7,21.4-15.8,23.2-25.9c-4.6,1.8-14.3,6.4-28.8,5.6c5.6-2.6,14.3-5.3,13.2-16.5c2.3-1.5,4.1-2.6,4.1-2.6
				c-1.7-0.6-3.5-0.8-5.3-0.8c-0.3-1.1-0.8-2.6-3.3-1.8s-3,0.8-3.3,1.8c-1.1,0.3-4.6,0-7.1,1.8c-2.6,1.8-9.7,7.9-12.4,8.9
				c1.1-1.8,2.6-4.5,2.6-4.5s-7.4,0.8-12.7,3c-9.7,3.3-20.9,9.4-32.3,15.3c1.1-1.8,1.5-3,2.3-3.3c0.8-0.3,2.6-0.8,2.6-1.1
				s-0.8-3-0.3-4.1c3.4-7.2,7.4-14.1,12-20.6c5.3-7.1,6.4-17.3,6.4-17.3l23.2-11.7l65.2-15l42.3,2.6l-5.3,29.3l-25,51.1l-21.4,46.6
				l-24.4,28.5L1814.7,747.2L1814.7,747.2L1814.7,747.2z"/>
			<path class="st59" d="M1920.4,620.4c0,0-25.5,31.5-32.6,36.4c4.6-9.7,32.6-67.5,42.8-83.6c-2.3-1.8-5.3-1.8,1.8-30
				c-6.1,14.3-8.2,21.7-13.2,25.5c-5,3.8-5.6,2.6-9,2.6c0.6-1.2,0.9-2.5,0.8-3.8c0,0-21.4-2.6-36-2.6s-43.5,7.9-59.6,14.3
				c-12.7,5.3-19.9,5.3-24.4,8.6c-4.6,3.8-7.1,7.9-9.4,9c-1.8,1.1-10.5,3.8-12.4,6.7c-1.8,3-4.8,6.4-4.8,7.1s-0.8,1.8,1.5,1.1
				c0.8-0.3,6.4-3.3,12.7-7.1c8.6-4.8,19.1-10.5,26.7-13.8c21.7-8.6,28.5-7.1,38.2-9c10.2-1.8,24.7-6.1,34.4-6.1
				c9.7-0.3,28.1,0,32.3,0.8c-1.8,1.5-3.3,3.3-2.6,9.7c0,1.8-1.5,3.8-3,8.2c-4.5,12.4-13.2,33.1-18,43.5
				c-6.7,14.3-14.3,26.2-18,33.7c-3.8,7.4-12,27-20.2,37.5s-12.4,16.8-15,19.1s-20.9,15.8-19.6,20.6c3.3-1.1,24.4-9,39.7-26.2
				s18.4-27.8,30.3-37.2s21.4-25.2,27-38.2C1915.6,635,1914.5,631.2,1920.4,620.4L1920.4,620.4L1920.4,620.4z"/>
			<path class="st60" d="M1371.1,855.9c0,0-3.3,13.8-10.9,20.6c-7.4,6.7-20.6,12.4-22.1,23.7c-1.8,11.2,13.2,16.8,13.2,16.8
				s-8.2,13.5-8.2,23.7c0,10.5-0.3,12.4,0.8,22.5c-1.2,0.8-2.2,1.8-3,3c0,0,0.8,9.7,8.2,15.8c7.4,6.1,13.8,9.7,17.6,8.2
				c0.6,1.2,1.1,2.5,1.5,3.8c0,0,5.6-14.3,9.4-26.7c3.8-12.7,7.1-10.9,8.6-28.1s18-46.6,18-46.6l11.3-25.1l-18.3-14.3L1371.1,855.9
				L1371.1,855.9z"/>
			<path class="st61" d="M1405.2,880.6c-3.8,3.9-7.3,8-10.4,12.4c-4.8,6.7-8.6,12.7-15.8,15.3s-11.7,2.6-11.2,9.7
				c0.4,7.1,7.1,10.2,10.9,13.8c4.1,3.8,7.4,10.2,5.6,17.3c2.3-1.1,6.4-2.3,10.2-10.5c3.8-8.2,30.3-58.1,30.3-58.1L1405.2,880.6
				L1405.2,880.6z"/>
			<path class="st62" d="M1509.8,765.5c0,0,2.3-6.1,0-10.5c-2.3-4.5-16.1-6.1-22.9-11.2c-7.1-5.3-15.8-9-22.9-6.7
				c1.1-2.6,5.3-8.2,1.8-9.4c-3.3-1.1-15.8,4.5-19.1,7.1s-10.9,5.6-12.4,7.4s-4.1,5.3-5.6,3.8c-1.5-1.1-2.3-3.8-4.8-2.3
				s-15,11.7-17.3,17.6c-2.3,5.9-7.4,19.1-22.9,34.1s-22.2,24.7-17.6,30.3s6.7,1.5,7.4,6.4c0.6,4.8,0.3,9.6-0.8,14.3
				c-1.8,7.9-4.8,15.3-0.8,16.8c10.5,3.3,20.6-3,22.9-1.1c4.5,4.1-2.6,18.8,8.2,21.7c10.9,3,21.7-2.6,21.7-2.6l39.7-21.4l38.2-20.2
				l19.6-38.7l-10.5-32.3L1509.8,765.5L1509.8,765.5z"/>
			<path class="st63" d="M1472.3,857.9c0,0-6.7-10.2,1.5-19.1c8.2-9,19.9-12.7,24.4-18.3c-0.9-1.1-2-1.9-3.3-2.3
				c3-5.4,7.6-9.8,13.2-12.5c-2.3-2.3-5.3-4.1-8.6-4.1c-7.4,0-12,4.5-18.8,4.5c-6.7,0-7.4-3.3-7.4-3.3s11.2-1.1,10.2-6.1
				c-1.1-5.3-3-5.3-3-5.3s21.7-9,25.5-13.8c3.8-4.8,3.3-10.5,4.1-12.7c2.6,0,17.6-7.9,23.7-4.5s1.8,12.4,1.8,12.4
				s18.4-13.8,27.7-27.3c8.2,0.8,12-5.6,18-5.6c7.4,0,19.1,10.2,21.4,31.8c1.5,12.4,3.8,19.6,1.5,41.6c-1.1,12.4-0.8,39,3,52.2
				c2.6,10.5,8.6,9.4,8.6,9.4c-0.9,3.2-2.8,6-5.3,8.2c-4.1,3.8-4.6,13.8-4.1,17.6c0.6,2.8,1.4,5.5,2.3,8.2c0,0-4.8,5.6-6.1,9.4
				c-1.1,3.8-6.1,6.4-9.7,6.4s-1.8-0.3-6.7,0s-6.4,1.1-9.4,0c-3-1.1-5.3-2.3-4.1-12c1.1-9.7-37.5-32.3-37.5-32.3l-63-22.5l0,0
				L1472.3,857.9z"/>
			<path class="st64" d="M1399.9,953.8c0,0,13.8,18.4,70.5,18.4c27,0,36.4-2.6,42-4.1c6.1-1.5,28.8-10.5,51.7-37.5
				c20.6-24.4,16.1-34.4,16.1-34.4l-12-1.8l-39,5.3l-115.4,49.2L1399.9,953.8L1399.9,953.8z"/>
			<path class="st65" d="M1442.2,958.3c0,0-49.2,10.9-49.2-20.2c0-30.3,30.3-62.2,37.9-67.8c7.9-5.6,26.7-12,26.7-12h45.4l8.6,22.9
				l-3.8,49.5L1442.2,958.3L1442.2,958.3z"/>
			<path class="st66" d="M1487.6,867.6c0,0-9.4-8.7-30.8,3c-21.4,11.7-38.7,36-39.8,58.1c-1.1,19.6,16.1,34.1,42.8,34.9
				c19.9,0.8,31.9-1.5,37.9-3c-1.5-1.8-9.4-11.7-9.4-11.7L1487.6,867.6L1487.6,867.6L1487.6,867.6z"/>
			<path class="st67" d="M1478.3,872.4c0,0-2.3-1.8-9,1.8c-5.6,3-13.8,10.9-20.2,16.5c-4.1,3.3-6.7,4.8-9,7.4
				c-9.4,11.2-17.3,29.6-12.7,38.7c4.6,9.1,19.6,19.6,57.8,12.4l-7-76.9l0,0L1478.3,872.4z"/>
			<path class="st65" d="M1465.9,891.3c0,0-6.1,9.4-6.1,24.4c0,15.3,8.7,39.7,40.5,41.6c24.4,1.5,40.8-35.2,58.6-49.5
				c13.5-10.9,21.7-11.2,21.7-11.2s-13.8-15-50.7-34.4c-36.4-19.6-77.2-22.2-99.4,7.9c10.5-0.8,44.3-9.4,44.3-9.4l16.5,5.3
				L1465.9,891.3L1465.9,891.3L1465.9,891.3z"/>
			<path class="st68" d="M1513.5,911.1c-1.1-2.3-1.8-5.3,2.6-6.1s6.4-0.3,7.9,3s3,6.1,0.8,7.4
				C1522.5,916.7,1516.6,915.5,1513.5,911.1L1513.5,911.1z M1506.4,889.7c0,0-1.5,1.1-0.8-1.1c0.3-2.6,2.3-7.1,7.1-6.1
				s3.8,6.4,3,7.9c-0.8,1.5-4.8,4.1-7.9,3c-1.4-0.3-2.2-1.7-1.8-3.1C1506.1,890.2,1506.2,889.9,1506.4,889.7L1506.4,889.7z"/>
			<path class="st69" d="M1095.8,899.4c0,0,12,9,25.9,8.7c13.8-0.3,31.6-14.6,39.7-23.7c4.8-5.3,9-10.9,13.5-15.3
				c3.8-3.8,6.4-5.6,8.2-8.2c2.6-3,5.3-8.6,6.7-10.5c-3.3,2.6-8.2,7.1-13.2,10.2c-4.8,3-15.3,8.6-19.6,10.2
				c-4.1,1.5-46.6,24-46.6,24L1095.8,899.4L1095.8,899.4z"/>
			<path class="st70" d="M1114.1,787.4c0,0,6.7-4.5,19.6-7.4c12.4-3,37.5-5.3,37.5-5.3l20.6,9l8.2,31.1l-15,32.3l-19.1,12
				l-21.7-34.9L1114.1,787.4L1114.1,787.4L1114.1,787.4z"/>
			<path class="st71" d="M1087.1,815.1l-7.1,5.3c0,0,1.8-3.3,3.3-13.5s9.4-34.9,20.9-49.2s11.2-13.5,11.2-13.5
				c-2.1-0.4-4.4,0.2-6.1,1.5c1.5-3.4,11.2-15.4,20.9-21.4c9.7-6,13.5-7.9,23.7-3c10.2,4.9,12.7,7.4,20.2,7.1
				c7.4-0.3,13.8-8.2,13.8-8.2s1.5,4.8-4.1,16.1c-5.6,11.2-27.8,34.1-27.8,34.1l-46.1,31.5L1087.1,815.1L1087.1,815.1L1087.1,815.1z
				"/>
			<path class="st72" d="M1121.2,783.6c0,0,33.4,4.5,43.5-4.8c0.3,1.1,1.5,1.1,1.5,1.8c-0.1,0.6-0.3,1.1-0.8,1.5
				c1.1-0.2,2.2-0.3,3.3-0.3c1.3,0.4,2.7,0.7,4.1,0.8c1.1,0,2.2-0.1,3.3-0.3c-0.2,1.5-1,2.9-2.3,3.8c1.5,0,3,0.3,3,1.5
				s0.3,4.9-1.5,5.6c-1.5,0.4-3.1,0.3-4.6-0.3c0.1,2.9,0.9,5.7,2.3,8.2c3,5.6,9.4,12,18,10.2c0,0,4.5,10.9-14.6,35.2
				c-2.6,3.3-5.3,7.9-8.6,11.7c-1.3,2.9-2.3,5.9-3,9c0,0,32.3-12.4,41.6-40.8c9.4-28.5,11.2-56.6,9.4-82.8
				c-0.3-7.4-1.5-12.7-3.3-16.5c-4.5-9.4-17.3-7.9-22.4-2.6c-7.4,7.4-19.9,25.9-37.2,38.7C1135.5,775.7,1134.7,777.9,1121.2,783.6
				L1121.2,783.6L1121.2,783.6z"/>
			<path class="st64" d="M1081.2,824.5c0,0-6.4,3.8-9.7,18c-3.3,14.6,3,32.3,6.7,37.9s12,20.9,29.3,21.7c4.3,0,8.5-0.9,12.4-2.6
				c6-2.8,11.7-6.3,16.8-10.5c7.4-5.6,13.5-10.5,12.7-10.9c-1.8-0.8-45.8-37.2-45.8-37.2l-16.5-18.5L1081.2,824.5L1081.2,824.5z"/>
			<path class="st73" d="M1122.8,884.9c0,0,8.9-0.8,14.3-4.1c5.3-3.3-31.1-39.4-31.1-39.4l2.6,39L1122.8,884.9z"/>
			<path class="st74" d="M1084.1,821.8c0,0-4.5,8.7-4.5,10.9c-0.8,7.4,1.5,30.8,3.3,38.2c1.8,7.9,11.7,19.9,24.4,19.9
				c7.9,0,18.8-4.8,18.8-6.1c0-1.5-11.2-3-14.3-8.7c-1.8-3-2.6-10.5-3-18c-0.3-4.8-0.3-10.2,1.5-12c4.1-4.5,4.8-17.6,4.8-17.6
				l14.6-27h-19.2l-22.9,14.3L1084.1,821.8z"/>
			<path class="st65" d="M1078.5,830.1c0,0,15-19.9,28.5-24.4s19.6-1.8,19.6-1.8l-7.9,20.2l-11.2,12.4l0.8,6.4
				c0,0-1.8,16.8,9.4,28.5c11.2,11.7,19.6,11.2,24.4,11.2s18.8-4.1,25.9-20.9c6.4-15.8,11.7-36-1.1-56.3c-12.5-20.2-34.4-21-38.7-21
				S1090.6,786.1,1078.5,830.1L1078.5,830.1L1078.5,830.1z"/>
			<path class="st75" d="M1463.6,897.6c-5.6-2.6-0.3-18.3,5.3-23.2s12.7-10.5,25.2-11.2c4.5-0.3,8.9,2.6,8.2,5.6
				c-1.1,5.6-8.9,13.5-16.1,19.1C1476.4,895.7,1470,900.5,1463.6,897.6z"/>
			<path class="st76" d="M1160.2,811.6c4.1-0.3,9.4,3,10.5,7.4c1.1,4.8-2.6,14.6-10.5,14.6c-6.4,0-9.7-7.9-9.7-10.2
				c0.1-1.9,0.6-3.7,1.5-5.3C1152.3,817.7,1153.1,812.4,1160.2,811.6z"/>
			<path class="st77" d="M1101.1,815.1c0,0-10.5,4.8-15.3,15c-3.5,7.5-4.5,15.9-3,24c0.8,3.8,4.5,13.2,7.1,16.5
				c2.6,3.3,6.1,5.6,8.7,5.3c2.6-0.3,7.9-7.1,7.9-11.2s0.3-21.4,5.3-30.8C1116.1,824.5,1101.1,815.1,1101.1,815.1L1101.1,815.1
				L1101.1,815.1z"/>
			<path class="st78" d="M1102.6,814.4c-1.8,1.1-4.8,2.6-4.1,4.5c0.8,1.8,7.1,3,9.4,7.4c2.6,4.5,2.6,9.4,1.8,11.7
				c2-0.9,3.8-2.2,5.3-3.8c3.3-3.8,7.4-8.9,10.9-8.9c2.3,0,4.6,1.1,6.7,1.1c3.3,0,6.7-1.1,7.1-4.5c0.8-4.5-6.4-8.7-10.5-7.9
				c0.8-3,1.8-7.4-1.5-10.5c-3.3-3-13.8,2.3-16.1,3.8S1102.6,814.4,1102.6,814.4L1102.6,814.4L1102.6,814.4z"/>
			<path class="st79" d="M1343.6,1133.1l22.4-6.6l6.4,4.5c0,0,4.5,9.7,11.7,10.9c-2.3,4.8-8.2,9-7.9,12.4c0.3,3.4,3.3,6.1,3.3,6.1
				s-20.2,33.4,19.6,67c-9.4,3.8-21.4,9-27.8,12c4.5,1.1,14.3,3,18.3,6.7s4.1,4.8,7.9,7.1s6.1,5.3,5.3,6.7
				c-2.6-1.5-11.2-6.1-12.7-1.8s-37.5,2.6-37.5,2.6l-60.7,11.7c0,0,2.3-6.1-4.1-11.7c-7.4-6.7-16.5,0.3-26.2-7.1
				c-12.7-9.7-13.2-20.9-17.3-25.2c4.1-2.6,12.4-6.4,32.3-9c-0.8-1.5-3.3-6.1-1.8-10.2c1.8-5.3,9.4-8.7,7.1-15
				c3.3-0.8,4.8-0.8,13.2-11.2c7.9-10.5,12.7-12.7,18.8-13.5c6.1-0.8,9.7,0,20.9-10.5c7.9-7.4,5.3-13.8,5.3-13.8
				S1345.5,1143.5,1343.6,1133.1L1343.6,1133.1L1343.6,1133.1z"/>
			<path class="st80" d="M1277.3,1136.4c0.3-1.5,1.5-2.3,9.7-1.5c8.2,0.8,60.1-4.8,74.2-5.6c14.3-1.1,64.5-0.3,88.9,4.8
				c24.4,5.2,49.2,11.2,61.1,14.3c12,3.3,15.8,4.5,15.3,6.1c-0.3,1.5-3,3-4.6,2.6c-1.5-0.3-41.3-12.4-53.5-15
				c-12.3-2.6-54.8-9.4-78-9c-21.7,0.3-30.3-0.3-48.7,1.8c-18.4,2.3-48.7,5.3-57.8,4.1C1275,1137.9,1276.9,1137.9,1277.3,1136.4
				L1277.3,1136.4L1277.3,1136.4z"/>
			<path class="st81" d="M1399.5,1255.3c0,0,31.1,16.8,42.3,37.5c8.2,15.3-4.8,22.9-4.8,22.9s17.6,0,15.3,9.7
				c-1.1,6.1-30.3,22.4-49.9,31.1c-19.9,8.7-19.1,8.2-28.8,9.7c-9.4,1.5-35.2-3-40.5,4.6c-5.3,7.6-3,15.3-1.5,16.5
				c1.5,1.1,13.8,2.6,13.8,2.6s-2.6,7.1-28.1,7.9s-31.9,2.6-33.4,5.3c-1.5,2.6,4.8,1.1,16.5,3c11.7,1.8,28.1,3,28.1,3
				s-5.3,4.6-19.1,8.2c-15.8,4.1-40.5,7.9-47.9,12.4c3.8,2.6,9.4,6.4,12,6.7c-6.4,1.5-15.3,4.9-16.8,6.1c2.3,1.5,5.3,3.3,5.3,3.3
				s-12.8,15.3-20.2,19.1c-7.4,3.8-50.2,23.7-64.9,19.9c-36.7-9.7-41.3-49.9-50.2-52.9c-13.5-4.6-19.9,4.5-31.9-1.8
				c5.3-3.8,8.2-6.1,13.8-8.6c-6.1-3-37.5-22.9-37.5-22.9c-3.3-7.2-6.9-14.1-10.9-20.9c-6.1-10.5-15-24.4-21.7-36.7
				c-14.6-27-15.3-39.4-28.5-54.8c2.3-3,10.2-2.6,10.2-2.6l110.6,36.4l196.1,5.7l51-72.8L1399.5,1255.3L1399.5,1255.3z"/>
			<path class="st82" d="M1109,1366.4c1.2,1.3,2.6,2.4,4.1,3.3c3.8,2.6,9.4,5.6,13.2,10.2c1.5-2.3,5.3-6.4,12,0
				c6.7,6.4,15,1.8,20.2,3.3c5.3,1.8,5.6,2.6,5.6,2.6s3-2.6,9.7-5.3c4.1-1.5,9-2.6,14.3-4.1c4.8-1.1,10.2-2.6,13.8-2.6
				c3.3,2.3,15.3,15,63.4-3.8c45.4-17.6,55.8-19.6,63.4-16.8c0.8-1.8,1.5-5.3,13.2-4.8c0-4.8-9.7-21.4-9.7-21.4l-53.6-18.3h-29.3
				l-87.8,16.1l-48.7,27.8L1109,1366.4L1109,1366.4z"/>
			<path class="st83" d="M1079.7,1335.6c0,0,1.1,8.2,13.2,16.8c12,8.6,15.8,13.8,15.8,13.8s2.3-3,4.1-6.1c1.8-3.3,3.3-7.1,6.4-8.2
				c6.1-2.6,19.9,2.3,22.9,1.5c2.6-0.8,1.8-6.1,4.5-6.1c6.4-0.3,10.5,4.1,12.7,4.1c2.3,0,7.9-0.3,8.6-1.5s1.1-13.8,9.7-19.9
				c9.4-6.7,20.9-3.8,24-2.3c0,2.3,0.3,7.9,6.4,8.2c6.1,0.3,6.7-0.8,12,1.1c5.3,1.8,11.7-0.3,14.6,8.6c2.6-0.8,8.7-1.5,7.1-10.2
				c3-2.3,5.6-3.8,12-12.7c1.5-2.3,4.1-4.8,6.1-8.2c5.3,0,11.7-1.1,20.2,6.4c-2.6,1.8-4.1,3-4.8,4.8c2.2,2.2,4.2,4.6,6.1,7.1
				c2.3,3,3.8,6.7,6.7,7.4c6.4,1.8,16.8-0.8,28.5,0c11.2,0.8,20.6,4.8,24.7,7.4c1.5-0.8,1.5-1.1,5.3-0.3c3.8,0.8,6.7,1.1,2.6-3.8
				c2.3,1.1,4.8,3.3,7.1,1.1s4.1-5.6,10.5-6.4s8.7,0.3,11.2-6.4c3.3-8.2-8.2-8.2-8.2-8.2s5.3-4.9,11.2-11.2
				c7.1-6.7,15.3-15.3,17.3-25.9c3.3-19.6-15.8-22.1-15.8-22.1l-92.7,28.5l-113.3-5.6L1079.7,1335.6L1079.7,1335.6L1079.7,1335.6z"
				/>
			<path class="st84" d="M996.4,1067.8c0,0-3,3.8-4.8,12.7c-1.9,8.9-1.1,7.9-2.6,14.3c-1.5,6.4-20.2,69.8-13.2,91.2
				s19.1,29.3,26.7,46.6c1.5,3.8,3,6.1,3.8,9.4c2.6,11.2,0.3,19.9,3.3,31.1c1.1,3.8,3.8,8.2,7.9,12.7c9,9.4,23.7,18.3,30,24.7
				c8.9,9.4,21.7,28.5,37.9,30.3c8.7,1.1,20.9-2.6,31.1-8.6c9-5.6,14.6-13.5,24-18c6.7-3.3,13.8-4.6,20.2-6.1
				c13.2-2.6,25.2-3,32.3-1.5c10.9,2.3,36.7,10.2,51,10.2c11.2-0.2,22.3-1.7,33.1-4.6c21.7-6.4,47.9-17.3,65.2-22.2
				c10.2-3,18.3-3.8,26.7-5.6c14.3-3.3,26.2-7.9,33.1-16.5c-4.5-5.3-10.2-13.5-40.5-13.2c-34.4,0.8-74.2,19.9-93.8,22.9
				c-19.6,3-28.1,5.6-49.9-2.3c-21.4-8-22.1-13.2-22.1-13.2s-22.5-15.7-31.9-55.8s0-69.3,24.4-97.1c6.4-7.1,4.8-13.5,4.8-13.5
				s16.1-21.7,11.7-42c-4.8-20.2-36-16.1-36-16.1L996.4,1067.8L996.4,1067.8L996.4,1067.8z"/>
			<path class="st85" d="M1022.3,1135.4c-1.3,2.5-2,5.3-1.8,8.2c0.3,4.1,1.5,9.4,13.8,21.4c10.5,10.5,8.2,22.1,8.2,22.1
				s5.3,1.1,19.6-5.6c11.2-5.3,15,4.1,15,4.1c3.3-1.7,6.8-2.8,10.5-3.3c3.3-0.3,6.5-1.3,9.4-3c0,0,13.2,13.5,24.7,19.9
				c10.5,5.6,16.5,9.4,21.7,5.6c4.8-3.3,4.8-10.2,4.5-13.2c-1.2-2.8-2.7-5.4-4.5-7.9c-3.3-4.8-8.7-10.5-9-15
				c-0.8-10.5,7.9-22.9,6.1-25.9c-1.8-3-8.6-3.8-25.5,2.3C1097.5,1150.7,1022.3,1135.4,1022.3,1135.4L1022.3,1135.4L1022.3,1135.4z"
				/>
			<path class="st86" d="M1062.1,1203.2c0,0-8.6-8.2-5.6-47.9c3.7-0.1,7.3,0.3,10.9,1.1C1067.4,1156.3,1072.1,1187.1,1062.1,1203.2z
				"/>
			<path class="st65" d="M1000.5,1037.5c1.2-0.9,2.3-1.9,3.3-3c-3,5.6-16.8,28.1-5.6,63.4c11.2,35.2,39.4,61.4,74.2,62.7
				c34.7,1.2,53-15.8,73.9-41.3c8.2-10.2,17.6-22.9,25.9-31.6c12.4-13.5,22.2-17.3,22.2-30.3c0-26.7-27.3-38.7-67.5-50.7
				c-40.2-12-76.5-10.5-95.3-2.3C1013.2,1013.4,1005.3,1022.8,1000.5,1037.5L1000.5,1037.5L1000.5,1037.5z"/>
			<path class="st87" d="M1129.6,1215.1l3-1.5c0,0,0.8-12,5.6-11.7c4.8,0.8,7.1,7.1,6.7,9.4c-0.3,2.3-1.5,6.1-6.4,5.6
				C1132.1,1217.1,1129.6,1215.1,1129.6,1215.1L1129.6,1215.1z"/>
			<path class="st88" d="M1116.1,1164.2c0,0,3-1.1,6.7,2.6c3,0,16.1-1.5,20.2,1.1c4.1,2.6,5.3,4.8,5.3,4.8s-15.3,3.3-23.7,0
				C1116.1,1169.8,1116.1,1164.2,1116.1,1164.2z"/>
			<path class="st89" d="M1183.6,1166.4c0-0.8-8.2-6.4-16.8-8.2c-1.5-0.3-1.8,0.8-3,0.8c-0.8-0.3-1.1-2.6-1.1-2.6l-4.9,2.6
				c0,0-0.8,1.1,1.8,3c2.3,1.8,6.1,3.3,7.1,6.4c1.1,3,1.1,4.1,1.5,4.6c0.3,0.3,5.6,0,8.2-1.5
				C1179,1169.9,1183.9,1167.4,1183.6,1166.4L1183.6,1166.4L1183.6,1166.4z"/>
			<path class="st90" d="M1107,1197.2c0,0,1.5-10.5,11.7-10.9c10.5-0.8,12.4,9.4,12.4,9.4l-6.1,6.1
				C1125,1201.6,1120.5,1195.3,1107,1197.2L1107,1197.2z"/>
			<path class="st91" d="M1173,1152.2c0,0-5.6,6.1-18,7.9c-1.1-1.5-3.3-4.6,0-9.4c3.3-4.9,7.1-6.4,10.9-4.9
				C1169.3,1146.4,1172,1148.9,1173,1152.2z"/>
			<path class="st89" d="M1195.9,1159.6c0.3-1.5-0.8-1.8,0-2.6s4.9-2.3,5.6-1.5c0.3,0.3,0,1.5,0,3s0,3-0.8,4.1
				c-1.1,1.5-4.1,2.3-5.6,1.8c-1.5-0.5-1.8-2.6-1.8-3C1194.1,1161.1,1195.9,1160.4,1195.9,1159.6z M1221.8,1143.2
				c0-0.8,2.6-2.3,4.1-2.3c2.3,0,2.3,1.8,2.6,2.3c0.8,0.3,0.8-0.3,1.5,1.1s1.8,3.8,1.1,5.3s-3.8,2.6-4.5,2.3
				C1225.4,1151.1,1222.1,1144.3,1221.8,1143.2z"/>
			<path class="st84" d="M1169.6,1163.1c0,0,3.3,0.8,7.9,4.6c-1.5,1.1-3.8,2.3-3.8,2.3S1173.4,1166.4,1169.6,1163.1L1169.6,1163.1z"
				/>
			<path class="st64" d="M1162.2,1129.7c-0.8-0.8,2.3-2.6,4.1-2.3c1.8,0.3,2.6,1.5,4.5,1.8c2,0.3,2.3-0.8,3-1.5s3.3-0.3,3.8,0
				c0.3,0.3,0.5,0.7,0.8,1.1c0.1-1.2,0.6-2.3,1.5-3c1.2-0.9,2.7-1.1,4.1-0.8c0.3,1.1,1.8,4.8,1.5,5.6c-0.3,0.8-4.8,1.8-5.6,1.1
				c0.8,1.8,4.1,5.6,4.5,6.4c0.5,0.8-3.3,2.6-4.8,2.3C1177.5,1140.2,1164.4,1132.6,1162.2,1129.7L1162.2,1129.7z M1182.1,1104.6
				c-0.3-0.8-0.8-1.4-1.5-1.8c-1.1-0.3-4.5,0-4.5,1.8c0,1.8,3,12,6.4,17.3c3.8,5.3,6.4,9.7,8.9,10.9c1.7,0.8,3.7,0.1,4.6-1.5
				c0.3-0.8,1.1-6.4,0.8-19.6c-0.3-13.2-0.8-25.9-1.5-26.7s-3.8-0.8-4.8,0.8C1189.2,1087.3,1182.4,1102.3,1182.1,1104.6
				L1182.1,1104.6L1182.1,1104.6z"/>
			<path class="st91" d="M1168.6,1182.2c0,0-5.3-3.3-10.5-1.1c-4.8,2.3-4.5,11.2-4.5,11.2c2.2,0.9,4.7,0.6,6.7-0.8
				C1163.6,1189.4,1167.8,1185.6,1168.6,1182.2L1168.6,1182.2z"/>
			<path class="st89" d="M1178.6,1194.2c-0.3-3-3-3-3-4.6c0.4-1.5,1.8-2.6,3.3-2.6c1.5,0,3,1.8,4.9,3c1.8,1.1,4.5,3,4.8,5.3
				c0.3,2.3-3,8.6-6.7,8.6C1178.3,1204,1179.4,1197.2,1178.6,1194.2L1178.6,1194.2z M1207.9,1190.1c0,0-6.1,1.8-5.6,0
				c0.5-1.8,1.8-2.3,3.8-2.3c1-1,2.3-1.7,3.8-1.8c0.8,0,1.6,0.2,2.3,0.8c0,0,4.1-1.8,5.3-0.8c1.2,1.1,0.3,1.1,1.1,2.3
				c1,1.4,1.6,2.9,1.8,4.6c0,1.2-4.6,3.8-8.2,3.3C1207.9,1195.3,1208.6,1190.9,1207.9,1190.1z M1243.2,1183.3c0,0,1.8,1.1,0.3,2.3
				c-1.1,1.1-6.4,3-10.9,3.3c-4.6,0-8.6,0.8-8.6-0.8s3.8-4.6,6.1-5.3c0.9-1.2,2.3-1.8,3.8-1.8c1.8,0,8.9-0.8,10.9-1.1
				c1.8-0.3,3.3,0.8,2.3,2.3C1246.5,1183.3,1243.2,1183.3,1243.2,1183.3L1243.2,1183.3z M1253.7,1136.4c0,0-2.3,4.8-4.8,4.8
				c-2.6-0.3-2.6-1.1-2.6-1.8c0-1.1,2.6-3.8,2.3-4.5c-0.8,0-2.6,0-2.3-1.8c0-1.5,2.6-3.3,4.8-3c1.7-1.4,3.9-2.2,6.1-2.3
				c2.6,0,4.8,0.8,4.8,2.3s-3,4.8-4.1,5.6C1256.7,1136.9,1255.2,1137.7,1253.7,1136.4L1253.7,1136.4z M1219.1,1226.1
				c0,0-3,0.3-3,1.8c0,0.8,0.8,0.8,1.8,0.3c0.6,0,1.2-0.1,1.8-0.3c0.3,0.3,0.3,1.8,2.6,1.8c1.9-0.3,3.7-0.9,5.3-1.8
				c1.8-0.8,3.3-1.5,3.3-3c-0.8-2.6-2.3-3.8-4.6-3.8c-1.2-0.1-2.3,0.2-3.3,0.8c0,0-0.8-1.5-3.3,0c-2.6,1.5-2.3,1.5-1.5,2.3
				C1219.6,1225.4,1219.1,1226.2,1219.1,1226.1L1219.1,1226.1z M1201.9,1241.9c0-0.8,3.8-2.3,4.8-1.8c1.1,0.3,4.1,6.1,4.1,6.7
				c0,0.8-3.8,2.6-5.3,2.6s-4.1-2.6-4.1-3c0-0.3,1.8-0.8,1.8-1.1C1203.8,1244.5,1201.9,1242.7,1201.9,1241.9L1201.9,1241.9z
				 M1189.9,1219.7c0.8-0.3,0.8-1.1,1.8-1.8c0.7-0.4,1.5-0.6,2.3-0.3c0.5-1,1.5-1.6,2.6-1.8c1.8-0.3,3.3,0,3,0.8
				c0,2.3,1.5,3.8,1.5,5.6s-1.1,4.1-4.8,5.6c-3.8,1.1-8.9,1.1-9.7,0.8s-1.5-3.3-0.8-4.9S1188.7,1220.5,1189.9,1219.7L1189.9,1219.7
				L1189.9,1219.7z"/>
			<path class="st84" d="M1194.8,1220.8c0,0-2.6,1.5-2.6,2.3c-0.2,0.7-0.3,1.5-0.3,2.3c0,0.4,3.3-0.3,3.8-0.8
				C1195.8,1224.2,1194.8,1221.5,1194.8,1220.8z"/>
			<path class="st64" d="M1172.2,1213.6c1.5,0.3,4.1,0,6.1,0.8c1.5,0.8,2.6,2.3,1.1,4.1s-3,4.6-6.4,4.1c-3.8-0.3-7.4-2.3-7.4-3.8
				c-0.1-1.9,0.5-3.9,1.8-5.3C1168.9,1212.3,1169.6,1213,1172.2,1213.6L1172.2,1213.6L1172.2,1213.6z"/>
			<path class="st91" d="M1170.4,1215.1c0,0-4.8,3.8-6.1,5.6c-1.5,1.8-8.9,11.2-11.2,13.2c0.8-1.3,1.6-2.6,2.6-3.8
				c-3,1.9-5.2,4.8-6.4,8.2c-1.8,5.6,10.2,8.7,18,10.9s10.9,3,10.9,3c-2.9-4.4-5.4-9-7.4-13.8c-3-7.1-4.5-7.9-2.6-11.2
				c1.5-3.3,3.8-5.6,3.8-8.2C1171.2,1216.7,1170.4,1215.1,1170.4,1215.1z"/>
			<path class="st65" d="M997.5,1227.1c1.1,0.2,2.2,0.2,3.3,0c2.3-0.3,25.9-9,50.7-7.4c18.5,1.1,36.9,4.1,54.8,9
				c31.1,8.2,69.8,24.4,94.8,33.7c6.7,2.6,13.2,7.1,18,8.9c19.1,7.4,19.9,7.4,31.1,9.4c13.2,1.8,26.7-2.6,40.8-5.6
				c17.3-3.8,46.9-5.6,72.8-9.4c8.4-1.2,16.7-3,24.7-5.6c0,0-20.6,20.6-70.1,28.1c-20,3-40.3,3.3-60.4,0.8
				c-15.8-1.5-26.2-3.8-34.1-6.1c-9-2.6-27.3-9.4-49.9-15c-15.8-4.1-33.4-7.1-53.5-10.9C1070.7,1247.8,1016.7,1237.4,997.5,1227.1
				L997.5,1227.1z"/>
			<line class="st92" x1="971.7" y1="1034.8" x2="845.3" y2="916.8"/>
			<path class="st3" d="M941.6,1133.4c-12,10.2-24.7,19.9-37.2,29.3l-37.5,28.8c-12.7,9.4-25.2,19.1-37.9,28.5s-25.5,18.3-39,27
				c12-10.2,24.7-19.6,37.5-28.8s26-18.3,38.2-27.7l37.5-28.8C916.1,1152.2,928.6,1142.5,941.6,1133.4L941.6,1133.4z M875.3,1239.6
				c0,0,13.5-11.2,30.3-27c20.9-19.6,46.6-44.6,54.8-49.1L875.3,1239.6L875.3,1239.6z"/>
			<path class="st3" d="M875.3,1239.6c6.7-6.7,13.8-13.2,20.9-19.6l10.9-9.4c3.3-3,7.1-6.4,10.5-9.7c6.7-6.7,13.2-13.8,19.9-20.6
				c3.3-3.4,6.8-6.7,10.5-9.7c1.8-1.6,3.9-3,6.1-4.1c1.8-1.1,3.8-3,6.4-3.3c-1.5,2.3-3.3,3.3-4.9,5.3c-1.8,1.5-3.3,3.3-4.8,4.8
				c-3.3,3.3-7.1,6.4-10.5,9.4c-7.1,6.1-14.6,12-21.7,18.3s-13.8,13.2-20.9,19.6C889.9,1227.1,882.8,1233.5,875.3,1239.6
				L875.3,1239.6z M966.1,1178.9c0,0-49.5,48.4-59.6,56.3L966.1,1178.9z"/>
			<path class="st3" d="M966.1,1178.9c-4.4,5.1-9.2,10-14.3,14.6l-15,14.3c-4.8,4.8-9.4,9.7-14.6,14.6c-5.3,4.6-10.2,9-15.8,13.2
				l14.6-14.3c4.9-4.8,10.2-8.9,15.3-13.8l14.6-14.3C955.9,1188.1,960.7,1183.3,966.1,1178.9z M968.3,1205.1
				c-4.6,12.7-9.9,25.1-16.1,37.2c-12.7,25.5-31.9,57.3-40.2,73.6L968.3,1205.1L968.3,1205.1z"/>
			<path class="st3" d="M968.3,1205.1c0,5.6-1.5,10.5-3.3,15.3c-1.8,4.9-3.8,9.6-6.1,14.3c-2.3,4.6-4.9,9.4-7.4,13.8
				s-5.6,8.9-7.9,13.5l-15.3,27c-5.3,9-10.5,18.1-16.1,26.7c3.8-9.7,9-18.8,13.8-27.8c5.3-9,10.2-18,15-27.3
				c2.4-4.6,4.5-9.4,6.4-14.3c2.3-4.9,4.5-9.4,6.4-13.8c2.3-4.8,4.1-9.4,6.4-13.8C962.7,1214.1,964.8,1209.5,968.3,1205.1
				L968.3,1205.1z"/>
			<path class="st93" d="M1022.3,1329.5c0,0-15,19.9-13.5,45.1C1012.9,1361.4,1018.1,1341.2,1022.3,1329.5z M1036.6,1349.4
				c0,0-5.3,54-9.7,80.6C1033.1,1399.3,1034.3,1401.9,1036.6,1349.4z M1136,1433.2c0,0-22.4,66-22.9,84.3
				C1117.9,1498.7,1127.3,1460.1,1136,1433.2L1136,1433.2z"/>
			<path class="st94" d="M1188.4,1325.4c0,0,36.4,60.1,63.7,111.3C1244.8,1411,1227.8,1363.7,1188.4,1325.4z"/>
			<path class="st95" d="M1286.3,1413.9c20,35.3,38,71.7,54,109.1C1337.3,1497.2,1329.1,1453,1286.3,1413.9z"/>
			<path class="st96" d="M1573.9,1502.4c6.1-3.8,18.1-24.4,28.5-29.6c10.5-5.3,18.3-6.4,27.8-16.8c9.4-10.9,12-17.6,32.6-26.2
				c28.8-12.4,9-28.5,9-28.5c3.2-3.1,6.6-6,10.2-8.6c7.4-5.6,16.1-12.4,15.3-24.4c-1.1-20.2-4.8-49.4-21.4-66.4
				c16.1-3.3,46.9-5.6,66-10.5c22.1-5.6,32.3-13.5,32.3-13.5s-12.7-21.7,7.9-43.5s37.5-34.9,49.9-59.3c-14.3-1.8-36-9.4-91.5,11.7
				c3,1.4,5.9,3,8.7,4.8c0,0-34.1,9.4-46.6,19.9c-21.7,18.3-24.4,33.4-47.9,44.6s-47.2,8.2-66.7,17.3s-22.5,16.8-29.6,20.2
				c1.5,1.8-0.3,4.8,2.6,7.4c-1.8,2.6-12.4,19.9-23.2,19.9c1.1,4.1,10.2,7.1,10.2,7.1s-6.7,4.9-23.7,6.1c8.6,9,16.8,18.8,39.4,33.1
				c-1.8,3.8-9.4,9.4-6.4,16.5c3.3,7.1,12,16.8,46.6,24.7c-17.6,0.8-38.2,4.8-66,1.1c-27.8-3.3-32.3-5.3-49.5-1.1
				c1.8,1.8,6.7,1.8,10.9,6.7c-4.6,0.3-33.1-3.3-42.8,9.4c-10.2,13.2-14.6,34.9-13.8,49.4c-5.3,2.6-10.5,7.1-7.9,16.5
				s16.1,12.4,24.7,18.3c8.6,6.4,9.4,8.6,17.6,7.1c8.6-1.8,21.4-10.5,28.8-10.5c7.4,0,12.7,5.6,12.7,5.6s20.2-9.7,22.2-7.9
				c1.8,1.8,0.3,13.5,2.3,15.3C1545.2,1519.7,1567.9,1506.2,1573.9,1502.4L1573.9,1502.4z"/>
			<path class="st97" d="M2014.9,895.4c-94.8-244.8-329.2-290.2-329.2-290.2H1017l2.6,249.4h133.2v556.9H1017v248.9h650.2
				c156.7,0,282.3-157.5,282.3-157.5C2150.7,1217.4,2014.9,895.4,2014.9,895.4L2014.9,895.4z M1670.7,1335.1c0,0-51,73.6-106.5,73.6
				h-111l-2.6-553.5H1593c0,0,66,13.8,112.1,144.4C1705.1,999.6,1766.3,1186.6,1670.7,1335.1z"/>
		</g>
	</g>
</g>
</svg>
